<svg width="22" height="22" viewBox="0 0 22 22" fill="none" xmlns="http://www.w3.org/2000/svg">
<rect x="0.75" y="0.75" width="20.5" height="20.5" rx="2.25" fill="#EE3A43" stroke="#E4E4E4" stroke-width="0.5"/>
<path d="M12.8857 5.31313L12.959 5.36561L13.048 5.37911L15.1686 5.70051L17.6475 6.75738L18.2668 13.3508L16.2451 15.225L16.245 15.225L16.2421 15.2277L15.0376 16.3685L12.4309 18.096L5.56592 16.3707V12.75V12.5976L5.45959 12.4884L3.4546 10.4293L4.77951 7.77951L7.66772 6.33541L7.75679 6.29087L7.81203 6.20801L8.74743 4.80492L10.9485 3.92448L12.8857 5.31313Z" stroke="white" stroke-width="0.75"/>
<path d="M11.6473 8.90359L11.7217 8.95922L11.8134 8.97373L12.5953 9.09743L13.3943 9.45303L13.6105 11.8551L12.9125 12.5305L12.9125 12.5305L12.9096 12.5333L12.4623 12.9755L11.5689 13.5935L9.21457 12.9759V11.7V11.5522L9.11378 11.4442L8.44872 10.7313L8.85905 9.87465L9.89793 9.33245L9.98662 9.28616L10.0405 9.20185L10.3605 8.70081L11.0125 8.42857L11.6473 8.90359Z" stroke="white" stroke-width="0.75"/>
</svg>
