<svg width="42" height="42" viewBox="0 0 42 42" fill="none" xmlns="http://www.w3.org/2000/svg">
<rect x="0.75" y="0.75" width="40.5" height="40.5" rx="2.25" fill="white" stroke="#676767" stroke-width="0.5"/>
<mask id="path-2-inside-1_17_39" fill="white">
<path fill-rule="evenodd" clip-rule="evenodd" d="M28.603 22.1774C29.4877 20.849 30 19.2729 30 17.5827C30 12.8426 25.9706 9 21 9C16.0294 9 12 12.8426 12 17.5827C12 19.2654 12.5078 20.835 13.3852 22.1597C13.3865 22.2982 13.4196 22.4418 13.4909 22.5836C15.6151 26.811 18.7478 31.4992 20.203 33.6093C20.5916 34.1727 21.4084 34.1726 21.7968 33.6092C23.2518 31.4987 26.3831 26.8092 28.4985 22.5812C28.5661 22.4462 28.599 22.3096 28.603 22.1774ZM25.5 16.7244C25.5 19.0944 23.4853 21.0157 21 21.0157C18.5147 21.0157 16.5 19.0944 16.5 16.7244C16.5 14.3544 18.5147 12.4331 21 12.4331C23.4853 12.4331 25.5 14.3544 25.5 16.7244Z"/>
</mask>
<path d="M28.603 22.1774L27.7707 21.6232L27.612 21.8614L27.6034 22.1476L28.603 22.1774ZM13.3852 22.1597L14.3852 22.1503L14.3824 21.8543L14.2189 21.6075L13.3852 22.1597ZM13.4909 22.5836L12.5973 23.0326L12.5973 23.0326L13.4909 22.5836ZM20.203 33.6093L21.0262 33.0415L21.0262 33.0415L20.203 33.6093ZM21.7968 33.6092L20.9735 33.0416L20.9735 33.0416L21.7968 33.6092ZM28.4985 22.5812L29.3928 23.0286L29.3928 23.0286L28.4985 22.5812ZM29.4353 22.7317C30.4244 21.2465 31 19.4788 31 17.5827H29C29 19.0669 28.5509 20.4515 27.7707 21.6232L29.4353 22.7317ZM31 17.5827C31 12.2461 26.4776 8 21 8V10C25.4636 10 29 13.4391 29 17.5827H31ZM21 8C15.5224 8 11 12.2461 11 17.5827H13C13 13.4391 16.5364 10 21 10V8ZM11 17.5827C11 19.4704 11.5705 21.2308 12.5515 22.7119L14.2189 21.6075C13.4451 20.4392 13 19.0603 13 17.5827H11ZM14.3844 22.1346C14.3819 22.1296 14.3823 22.1291 14.3832 22.133C14.3842 22.1369 14.3851 22.1428 14.3852 22.1503L12.3853 22.1691C12.3881 22.4632 12.4588 22.7569 12.5973 23.0326L14.3844 22.1346ZM21.0262 33.0415C19.5748 30.937 16.4757 26.2964 14.3844 22.1346L12.5973 23.0326C14.7545 27.3256 17.9208 32.0615 19.3798 34.177L21.0262 33.0415ZM20.9735 33.0416C20.9717 33.0443 20.9715 33.0439 20.9736 33.042C20.9757 33.0403 20.9786 33.0382 20.9821 33.0364C20.9889 33.0329 20.9951 33.0318 20.9999 33.0318C21.0047 33.0318 21.0109 33.0329 21.0178 33.0364C21.0212 33.0382 21.0241 33.0402 21.0262 33.042C21.0283 33.0439 21.0281 33.0442 21.0262 33.0415L19.3798 34.177C20.1658 35.3167 21.8342 35.3168 22.6202 34.1768L20.9735 33.0416ZM27.6042 22.1337C25.522 26.2953 22.4247 30.9366 20.9735 33.0416L22.6202 34.1768C24.0789 32.0608 27.2442 27.3231 29.3928 23.0286L27.6042 22.1337ZM27.6034 22.1476C27.6036 22.1406 27.6046 22.1351 27.6055 22.1317C27.6063 22.1283 27.6066 22.129 27.6042 22.1337L29.3928 23.0286C29.524 22.7664 29.5942 22.4876 29.6025 22.2073L27.6034 22.1476ZM21 22.0157C23.9923 22.0157 26.5 19.6909 26.5 16.7244H24.5C24.5 18.4979 22.9783 20.0157 21 20.0157V22.0157ZM15.5 16.7244C15.5 19.6909 18.0077 22.0157 21 22.0157V20.0157C19.0217 20.0157 17.5 18.4979 17.5 16.7244H15.5ZM21 11.4331C18.0077 11.4331 15.5 13.7579 15.5 16.7244H17.5C17.5 14.9509 19.0217 13.4331 21 13.4331V11.4331ZM26.5 16.7244C26.5 13.7579 23.9923 11.4331 21 11.4331V13.4331C22.9783 13.4331 24.5 14.9509 24.5 16.7244H26.5Z" fill="black" mask="url(#path-2-inside-1_17_39)"/>
</svg>
