<svg width="42" height="42" viewBox="0 0 42 42" fill="none" xmlns="http://www.w3.org/2000/svg">
<rect x="0.75" y="0.75" width="40.5" height="40.5" rx="2.25" fill="#EE3A43" stroke="#676767" stroke-width="0.5"/>
<mask id="path-2-inside-1_17_42" fill="white">
<path fill-rule="evenodd" clip-rule="evenodd" d="M28.6039 22.1921C29.488 20.8623 30 19.2848 30 17.5931C30 12.8472 25.9706 9 21 9C16.0294 9 12 12.8472 12 17.5931C12 19.2773 12.5075 20.8483 13.3844 22.1744C13.3857 22.3127 13.4186 22.4561 13.4898 22.5979C15.6139 26.8307 18.7471 31.5255 20.2027 33.6387C20.5912 34.2027 21.4088 34.2027 21.7972 33.6386C23.2525 31.525 26.3843 26.8289 28.4996 22.5955C28.567 22.4606 28.5999 22.3241 28.6039 22.1921ZM25.5 16.7338C25.5 19.1067 23.4853 21.0303 21 21.0303C18.5147 21.0303 16.5 19.1067 16.5 16.7338C16.5 14.3608 18.5147 12.4372 21 12.4372C23.4853 12.4372 25.5 14.3608 25.5 16.7338Z"/>
</mask>
<path d="M28.6039 22.1921L27.7711 21.6385L27.6128 21.8765L27.6043 22.1623L28.6039 22.1921ZM13.3844 22.1744L14.3843 22.165L14.3815 21.8694L14.2185 21.6228L13.3844 22.1744ZM13.4898 22.5979L14.3835 22.1494L14.3835 22.1493L13.4898 22.5979ZM20.2027 33.6387L21.0263 33.0714L21.0263 33.0714L20.2027 33.6387ZM21.7972 33.6386L22.6208 34.2057L22.6208 34.2057L21.7972 33.6386ZM28.4996 22.5955L27.6051 22.1485L27.6051 22.1485L28.4996 22.5955ZM29.4366 22.7458C30.4249 21.2593 31 19.4904 31 17.5931H29C29 19.0792 28.551 20.4654 27.7711 21.6385L29.4366 22.7458ZM31 17.5931C31 12.2519 26.4787 8 21 8V10C25.4624 10 29 13.4426 29 17.5931H31ZM21 8C15.5213 8 11 12.2519 11 17.5931H13C13 13.4426 16.5376 10 21 10V8ZM11 17.5931C11 19.4819 11.57 21.2435 12.5502 22.7259L14.2185 21.6228C13.445 20.453 13 19.0726 13 17.5931H11ZM14.3835 22.1493C14.381 22.1443 14.3814 22.1438 14.3824 22.1477C14.3833 22.1516 14.3843 22.1576 14.3843 22.165L12.3844 22.1837C12.3872 22.4775 12.4578 22.7709 12.596 23.0464L14.3835 22.1493ZM21.0263 33.0714C19.5744 30.9637 16.4747 26.3166 14.3835 22.1494L12.596 23.0464C14.753 27.3448 17.9198 32.0873 19.3792 34.2059L21.0263 33.0714ZM20.9735 33.0715C20.9717 33.0742 20.9715 33.0738 20.9736 33.0719C20.9756 33.0701 20.9785 33.0681 20.982 33.0663C20.9889 33.0628 20.9951 33.0617 20.9999 33.0617C21.0047 33.0617 21.0109 33.0628 21.0178 33.0663C21.0213 33.0681 21.0242 33.0701 21.0262 33.0719C21.0283 33.0737 21.0281 33.0741 21.0263 33.0714L19.3792 34.2059C20.1651 35.3469 21.835 35.347 22.6208 34.2057L20.9735 33.0715ZM27.6051 22.1485C25.523 26.3155 22.4251 30.9633 20.9735 33.0715L22.6208 34.2057C24.0799 32.0866 27.2457 27.3423 29.3942 23.0425L27.6051 22.1485ZM27.6043 22.1623C27.6045 22.1553 27.6055 22.1499 27.6063 22.1465C27.6072 22.1431 27.6075 22.1437 27.6051 22.1485L29.3942 23.0425C29.5251 22.7804 29.595 22.502 29.6034 22.222L27.6043 22.1623ZM21 22.0303C23.9935 22.0303 26.5 19.702 26.5 16.7338H24.5C24.5 18.5113 22.9771 20.0303 21 20.0303V22.0303ZM15.5 16.7338C15.5 19.702 18.0065 22.0303 21 22.0303V20.0303C19.0229 20.0303 17.5 18.5113 17.5 16.7338H15.5ZM21 11.4372C18.0065 11.4372 15.5 13.7655 15.5 16.7338H17.5C17.5 14.9562 19.0229 13.4372 21 13.4372V11.4372ZM26.5 16.7338C26.5 13.7655 23.9935 11.4372 21 11.4372V13.4372C22.9771 13.4372 24.5 14.9562 24.5 16.7338H26.5Z" fill="white" mask="url(#path-2-inside-1_17_42)"/>
</svg>
