<svg width="42" height="42" viewBox="0 0 42 42" fill="none" xmlns="http://www.w3.org/2000/svg">
<rect x="0.75" y="0.75" width="40.5" height="40.5" rx="2.25" fill="white" stroke="#676767" stroke-width="0.5"/>
<path opacity="0.948" d="M11.7907 21.9146L11.7912 21.717L11.599 21.6709C10.3866 21.3799 9.43161 20.8598 8.71998 20.1194C8.01067 19.3814 7.5293 18.4101 7.28513 17.1919C7.17312 16.0343 7.32961 15.0185 7.74412 14.1361C8.15916 13.2526 8.83997 12.4878 9.79944 11.8441C10.372 11.509 10.9833 11.2865 11.6346 11.1759L11.8052 11.1469L11.8382 10.977C11.9309 10.4982 12.1146 10.1255 12.3799 9.84505C12.6396 9.57048 12.9906 9.37055 13.4461 9.25321C19.0139 9.24462 24.5817 9.25327 30.1495 9.27915C30.5789 9.37791 30.9155 9.55516 31.1711 9.8033C31.4259 10.0508 31.6127 10.3809 31.7241 10.8055C31.7586 17.8988 31.7586 24.9921 31.7241 32.0854C31.6127 32.51 31.4259 32.8401 31.1711 33.0876C30.9155 33.3357 30.5788 33.513 30.1493 33.6118C24.5814 33.6463 19.0133 33.6463 13.4454 33.6118C12.9512 33.49 12.5816 33.2777 12.3192 32.9857C12.0545 32.6911 11.8827 32.2976 11.8166 31.7884C11.7906 28.4972 11.782 25.2059 11.7907 21.9146ZM13.5706 9.63826L13.5344 9.63832L13.4998 9.64862C12.9474 9.81274 12.5441 10.1667 12.3024 10.6954L12.1498 11.0292L12.5163 11.0489C13.845 11.1206 14.9319 11.4858 15.7914 12.1314C16.6485 12.7753 17.2976 13.7117 17.7303 14.9579C18.0964 16.4008 17.931 17.7711 17.2329 19.0816C16.1226 20.8535 14.5286 21.7444 12.4229 21.7681L12.1763 21.7709L12.1757 22.0174C12.167 25.2634 12.1757 28.5093 12.2017 31.7552L12.2019 31.773L12.2045 31.7906C12.2584 32.1464 12.3877 32.4539 12.6023 32.6999C12.8169 32.9459 13.1038 33.1155 13.4486 33.2165L13.4823 33.2264L13.5173 33.2266C19.0367 33.2613 24.556 33.2613 30.0754 33.2266L30.1146 33.2263L30.1518 33.2141C30.5117 33.0959 30.8066 32.908 31.0203 32.6421C31.2341 32.3761 31.3536 32.0486 31.3898 31.6731L31.3909 31.6618L31.391 31.6503C31.4257 24.8471 31.4257 18.0438 31.391 11.2405L31.3909 11.2291L31.3898 11.2178C31.3536 10.8423 31.2341 10.5147 31.0203 10.2488C30.8066 9.9829 30.5117 9.79499 30.1518 9.67677L30.1144 9.66448L30.075 9.6643C24.5735 9.63826 19.0721 9.62958 13.5706 9.63826ZM11.7489 11.5124H11.7203L11.6925 11.5188C9.93226 11.9265 8.67975 12.969 7.95377 14.6296L7.94777 14.6434L7.94345 14.6577C7.56821 15.904 7.54693 17.0429 7.90216 18.0624C8.25746 19.0822 8.98018 19.956 10.0455 20.6884L10.0573 20.6964L10.0699 20.7031C10.9938 21.1938 11.9136 21.4206 12.8255 21.3699C13.7374 21.3193 14.6239 20.9921 15.4826 20.4021L15.7126 20.244L15.5302 20.0327C14.5095 18.85 13.4793 17.6748 12.4399 16.5071C12.415 14.9261 12.4069 13.3449 12.4154 11.7637L12.4167 11.5124H12.1654H12.1646H12.1637H12.1629H12.1621H12.1613H12.1605H12.1597H12.1589H12.1581H12.1572H12.1564H12.1556H12.1548H12.154H12.1532H12.1524H12.1515H12.1507H12.1499H12.1491H12.1483H12.1475H12.1467H12.1458H12.145H12.1442H12.1434H12.1426H12.1418H12.141H12.1402H12.1393H12.1385H12.1377H12.1369H12.1361H12.1353H12.1345H12.1336H12.1328H12.132H12.1312H12.1304H12.1296H12.1288H12.128H12.1271H12.1263H12.1255H12.1247H12.1239H12.1231H12.1223H12.1214H12.1206H12.1198H12.119H12.1182H12.1174H12.1166H12.1158H12.1149H12.1141H12.1133H12.1125H12.1117H12.1109H12.1101H12.1092H12.1084H12.1076H12.1068H12.106H12.1052H12.1044H12.1035H12.1027H12.1019H12.1011H12.1003H12.0995H12.0987H12.0979H12.097H12.0962H12.0954H12.0946H12.0938H12.093H12.0922H12.0913H12.0905H12.0897H12.0889H12.0881H12.0873H12.0865H12.0857H12.0848H12.084H12.0832H12.0824H12.0816H12.0808H12.08H12.0791H12.0783H12.0775H12.0767H12.0759H12.0751H12.0743H12.0735H12.0726H12.0718H12.071H12.0702H12.0694H12.0686H12.0678H12.0669H12.0661H12.0653H12.0645H12.0637H12.0629H12.0621H12.0612H12.0604H12.0596H12.0588H12.058H12.0572H12.0564H12.0556H12.0547H12.0539H12.0531H12.0523H12.0515H12.0507H12.0499H12.049H12.0482H12.0474H12.0466H12.0458H12.045H12.0442H12.0434H12.0425H12.0417H12.0409H12.0401H12.0393H12.0385H12.0377H12.0368H12.036H12.0352H12.0344H12.0336H12.0328H12.032H12.0312H12.0303H12.0295H12.0287H12.0279H12.0271H12.0263H12.0255H12.0246H12.0238H12.023H12.0222H12.0214H12.0206H12.0198H12.019H12.0181H12.0173H12.0165H12.0157H12.0149H12.0141H12.0133H12.0124H12.0116H12.0108H12.01H12.0092H12.0084H12.0076H12.0068H12.0059H12.0051H12.0043H12.0035H12.0027H12.0019H12.0011H12.0002H11.9994H11.9986H11.9978H11.997H11.9962H11.9954H11.9946H11.9937H11.9929H11.9921H11.9913H11.9905H11.9897H11.9889H11.988H11.9872H11.9864H11.9856H11.9848H11.984H11.9832H11.9824H11.9815H11.9807H11.9799H11.9791H11.9783H11.9775H11.9767H11.9758H11.975H11.9742H11.9734H11.9726H11.9718H11.971H11.9701H11.9693H11.9685H11.9677H11.9669H11.9661H11.9653H11.9645H11.9636H11.9628H11.962H11.9612H11.9604H11.9596H11.9588H11.9579H11.9571H11.9563H11.9555H11.9547H11.9539H11.9531H11.9523H11.9514H11.9506H11.9498H11.949H11.9482H11.9474H11.9466H11.9457H11.9449H11.9441H11.9433H11.9425H11.9417H11.9409H11.9401H11.9392H11.9384H11.9376H11.9368H11.936H11.9352H11.9344H11.9335H11.9327H11.9319H11.9311H11.9303H11.9295H11.9287H11.9279H11.927H11.9262H11.9254H11.9246H11.9238H11.923H11.9222H11.9213H11.9205H11.9197H11.9189H11.9181H11.9173H11.9165H11.9157H11.9148H11.914H11.9132H11.9124H11.9116H11.9108H11.91H11.9091H11.9083H11.9075H11.9067H11.9059H11.9051H11.9043H11.9035H11.9026H11.9018H11.901H11.9002H11.8994H11.8986H11.8978H11.8969H11.8961H11.8953H11.8945H11.8937H11.8929H11.8921H11.8913H11.8904H11.8896H11.8888H11.888H11.8872H11.8864H11.8856H11.8847H11.8839H11.8831H11.8823H11.8815H11.8807H11.8799H11.8791H11.8782H11.8774H11.8766H11.8758H11.875H11.8742H11.8734H11.8725H11.8717H11.8709H11.8701H11.8693H11.8685H11.8677H11.8669H11.866H11.8652H11.8644H11.8636H11.8628H11.862H11.8612H11.8603H11.8595H11.8587H11.8579H11.8571H11.8563H11.8555H11.8546H11.8538H11.853H11.8522H11.8514H11.8506H11.8498H11.849H11.8481H11.8473H11.8465H11.8457H11.8449H11.8441H11.8433H11.8424H11.8416H11.8408H11.84H11.8392H11.8384H11.8376H11.8368H11.8359H11.8351H11.8343H11.8335H11.8327H11.8319H11.8311H11.8302H11.8294H11.8286H11.8278H11.827H11.8262H11.8254H11.8246H11.8237H11.8229H11.8221H11.8213H11.8205H11.8197H11.8189H11.818H11.8172H11.8164H11.8156H11.8148H11.814H11.8132H11.8124H11.8115H11.8107H11.8099H11.8091H11.8083H11.8075H11.8067H11.8058H11.805H11.8042H11.8034H11.8026H11.8018H11.801H11.8001H11.7993H11.7985H11.7977H11.7969H11.7961H11.7953H11.7945H11.7936H11.7928H11.792H11.7912H11.7904H11.7896H11.7888H11.7879H11.7871H11.7863H11.7855H11.7847H11.7839H11.7831H11.7823H11.7814H11.7806H11.7798H11.779H11.7782H11.7774H11.7766H11.7757H11.7749H11.7741H11.7733H11.7725H11.7717H11.7709H11.7701H11.7692H11.7684H11.7676H11.7668H11.766H11.7652H11.7644H11.7635H11.7627H11.7619H11.7611H11.7603H11.7595H11.7587H11.7578H11.757H11.7562H11.7554H11.7546H11.7538H11.753H11.7522H11.7513H11.7505H11.7497H11.7489ZM13.084 11.5147L12.8004 11.4762V11.7624V11.7706V11.7789V11.7871V11.7953V11.8036V11.8118V11.8201V11.8283V11.8365V11.8448V11.853V11.8612V11.8695V11.8777V11.8859V11.8942V11.9024V11.9106V11.9189V11.9271V11.9354V11.9436V11.9518V11.9601V11.9683V11.9765V11.9848V11.993V12.0012V12.0095V12.0177V12.026V12.0342V12.0424V12.0507V12.0589V12.0671V12.0754V12.0836V12.0918V12.1001V12.1083V12.1165V12.1248V12.133V12.1413V12.1495V12.1577V12.166V12.1742V12.1824V12.1907V12.1989V12.2071V12.2154V12.2236V12.2318V12.2401V12.2483V12.2566V12.2648V12.273V12.2813V12.2895V12.2977V12.306V12.3142V12.3224V12.3307V12.3389V12.3472V12.3554V12.3636V12.3719V12.3801V12.3883V12.3966V12.4048V12.413V12.4213V12.4295V12.4377V12.446V12.4542V12.4625V12.4707V12.4789V12.4872V12.4954V12.5036V12.5119V12.5201V12.5283V12.5366V12.5448V12.5531V12.5613V12.5695V12.5778V12.586V12.5942V12.6025V12.6107V12.6189V12.6272V12.6354V12.6436V12.6519V12.6601V12.6684V12.6766V12.6848V12.6931V12.7013V12.7095V12.7178V12.726V12.7342V12.7425V12.7507V12.759V12.7672V12.7754V12.7837V12.7919V12.8001V12.8084V12.8166V12.8248V12.8331V12.8413V12.8495V12.8578V12.866V12.8743V12.8825V12.8907V12.899V12.9072V12.9154V12.9237V12.9319V12.9401V12.9484V12.9566V12.9648V12.9731V12.9813V12.9896V12.9978V13.006V13.0143V13.0225V13.0307V13.039V13.0472V13.0554V13.0637V13.0719V13.0802V13.0884V13.0966V13.1049V13.1131V13.1213V13.1296V13.1378V13.146V13.1543V13.1625V13.1707V13.179V13.1872V13.1955V13.2037V13.2119V13.2202V13.2284V13.2366V13.2449V13.2531V13.2613V13.2696V13.2778V13.2861V13.2943V13.3025V13.3108V13.319V13.3272V13.3355V13.3437V13.3519V13.3602V13.3684V13.3766V13.3849V13.3931V13.4014V13.4096V13.4178V13.4261V13.4343V13.4425V13.4508V13.459V13.4672V13.4755V13.4837V13.492V13.5002V13.5084V13.5167V13.5249V13.5331V13.5414V13.5496V13.5578V13.5661V13.5743V13.5825V13.5908V13.599V13.6073V13.6155V13.6237V13.632V13.6402V13.6484V13.6567V13.6649V13.6731V13.6814V13.6896V13.6978V13.7061V13.7143V13.7226V13.7308V13.739V13.7473V13.7555V13.7637V13.772V13.7802V13.7884V13.7967V13.8049V13.8132V13.8214V13.8296V13.8379V13.8461V13.8543V13.8626V13.8708V13.879V13.8873V13.8955V13.9037V13.912V13.9202V13.9285V13.9367V13.9449V13.9532V13.9614V13.9696V13.9779V13.9861V13.9943V14.0026V14.0108V14.0191V14.0273V14.0355V14.0438V14.052V14.0602V14.0685V14.0767V14.0849V14.0932V14.1014V14.1096V14.1179V14.1261V14.1344V14.1426V14.1508V14.1591V14.1673V14.1755V14.1838V14.192V14.2002V14.2085V14.2167V14.2249V14.2332V14.2414V14.2497V14.2579V14.2661V14.2744V14.2826V14.2908V14.2991V14.3073V14.3155V14.3238V14.332V14.3403V14.3485V14.3567V14.365V14.3732V14.3814V14.3897V14.3979V14.4061V14.4144V14.4226V14.4308V14.4391V14.4473V14.4556V14.4638V14.472V14.4803V14.4885V14.4967V14.505V14.5132V14.5214V14.5297V14.5379V14.5462V14.5544V14.5626V14.5709V14.5791V14.5873V14.5956V14.6038V14.612V14.6203V14.6285V14.6367V14.645V14.6532V14.6615V14.6697V14.6779V14.6862V14.6944V14.7026V14.7109V14.7191V14.7273V14.7356V14.7438V14.7521V14.7603V14.7685V14.7768V14.785V14.7932V14.8015V14.8097V14.8179V14.8262V14.8344V14.8426V14.8509V14.8591V14.8674V14.8756V14.8838V14.8921V14.9003V14.9085V14.9168V14.925V14.9332V14.9415V14.9497V14.9579V14.9662V14.9744V14.9827V14.9909V14.9991V15.0074V15.0156V15.0238V15.0321V15.0403V15.0485V15.0568V15.065V15.0733V15.0815V15.0897V15.098V15.1062V15.1144V15.1227V15.1309V15.1391V15.1474V15.1556V15.1638V15.1721V15.1803V15.1886V15.1968V15.205V15.2133V15.2215V15.2297V15.238V15.2462V15.2544V15.2627V15.2709V15.2792V15.2874V15.2956V15.3039V15.3121V15.3203V15.3286V15.3368V15.345V15.3533V15.3615V15.3697V15.378V15.3862V15.3945V15.4027V15.4109V15.4192V15.4274V15.4356V15.4439V15.4521V15.4603V15.4686V15.4768V15.4851V15.4933V15.5015V15.5098V15.518V15.5262V15.5345V15.5427V15.5509V15.5592V15.5674V15.5756V15.5839V15.5921V15.6004V15.6086V15.6168V15.6251V15.6333V15.6415V15.6498V15.658V15.6662V15.6745V15.6827V15.6909V15.6992V15.7074V15.7157V15.7239V15.7321V15.7404V15.7486V15.7568V15.7651V15.7733V15.7815V15.7898V15.798V15.8063V15.8145V15.8227V15.831V15.8392V15.8474V15.8557V15.8639V15.8721V15.8804V15.8886V15.8968V15.9051V15.9133V15.9216V15.9298V15.938V15.9463V15.9545V15.9627V15.971V15.9792V16.2292H13.0504H13.0586H13.0669H13.0751H13.0833H13.0916H13.0998H13.108H13.1163H13.1245H13.1327H13.141H13.1492H13.1574H13.1657H13.1739H13.1822H13.1904H13.1986H13.2069H13.2151H13.2233H13.2316H13.2398H13.248H13.2563H13.2645H13.2728H13.281H13.2892H13.2975H13.3057H13.3139H13.3222H13.3304H13.3386H13.3469H13.3551H13.3633H13.3716H13.3798H13.3881H13.3963H13.4045H13.4128H13.421H13.4292H13.4375H13.4457H13.4539H13.4622H13.4704H13.4787H13.4869H13.4951H13.5034H13.5116H13.5198H13.5281H13.5363H13.5445H13.5528H13.561H13.5692H13.5775H13.5857H13.594H13.6022H13.6104H13.6187H13.6269H13.6351H13.6434H13.6516H13.6598H13.6681H13.6763H13.6846H13.6928H13.701H13.7093H13.7175H13.7257H13.734H13.7422H13.7504H13.7587H13.7669H13.7751H13.7834H13.7916H13.7999H13.8081H13.8163H13.8246H13.8328H13.841H13.8493H13.8575H13.8657H13.874H13.8822H13.8904H13.8987H13.9069H13.9152H13.9234H13.9316H13.9399H13.9481H13.9563H13.9646H13.9728H13.981H13.9893H13.9975H14.0058H14.014H14.0222H14.0305H14.0387H14.0469H14.0552H14.0634H14.0716H14.0799H14.0881H14.0963H14.1046H14.1128H14.1211H14.1293H14.1375H14.1458H14.154H14.1622H14.1705H14.1787H14.1869H14.1952H14.2034H14.2117H14.2199H14.2281H14.2364H14.2446H14.2528H14.2611H14.2693H14.2775H14.2858H14.294H14.3022H14.3105H14.3187H14.327H14.3352H14.3434H14.3517H14.3599H14.3681H14.3764H14.3846H14.3928H14.4011H14.4093H14.4176H14.4258H14.434H14.4423H14.4505H14.4587H14.467H14.4752H14.4834H14.4917H14.4999H14.5081H14.5164H14.5246H14.5329H14.5411H14.5493H14.5576H14.5658H14.574H14.5823H14.5905H14.5987H14.607H14.6152H14.6234H14.6317H14.6399H14.6482H14.6564H14.6646H14.6729H14.6811H14.6893H14.6976H14.7058H14.714H14.7223H14.7305H14.7388H14.747H14.7552H14.7635H14.7717H14.7799H14.7882H14.7964H14.8046H14.8129H14.8211H14.8293H14.8376H14.8458H14.8541H14.8623H14.8705H14.8788H14.887H14.8952H14.9035H14.9117H14.9199H14.9282H14.9364H14.9447H14.9529H14.9611H14.9694H14.9776H14.9858H14.9941H15.0023H15.0105H15.0188H15.027H15.0352H15.0435H15.0517H15.06H15.0682H15.0764H15.0847H15.0929H15.1011H15.1094H15.1176H15.1258H15.1341H15.1423H15.1505H15.1588H15.167H15.1753H15.1835H15.1917H15.2H15.2082H15.2164H15.2247H15.2329H15.2411H15.2494H15.2576H15.2659H15.2741H15.2823H15.2906H15.2988H15.307H15.3153H15.3235H15.3317H15.34H15.3482H15.3564H15.3647H15.3729H15.3812H15.3894H15.3976H15.4059H15.4141H15.4223H15.4306H15.4388H15.447H15.4553H15.4635H15.4718H15.48H15.4882H15.4965H15.5047H15.5129H15.5212H15.5294H15.5376H15.5459H15.5541H15.5623H15.5706H15.5788H15.5871H15.5953H15.6035H15.6118H15.62H15.6282H15.6365H15.6447H15.6529H15.6612H15.6694H15.6777H15.6859H15.6941H15.7024H15.7106H15.7188H15.7271H15.7353H15.7435H15.7518H15.76H15.7682H15.7765H15.7847H15.793H15.8012H15.8094H15.8177H15.8259H15.8341H15.8424H15.8506H15.8588H15.8671H15.8753H15.8835H15.8918H15.9H15.9083H15.9165H15.9247H15.933H15.9412H15.9494H15.9577H15.9659H15.9741H15.9824H15.9906H15.9989H16.0071H16.0153H16.0236H16.0318H16.04H16.0483H16.0565H16.0647H16.073H16.0812H16.0894H16.0977H16.1059H16.1142H16.1224H16.1306H16.1389H16.1471H16.1553H16.1636H16.1718H16.18H16.1883H16.1965H16.2048H16.213H16.2212H16.2295H16.2377H16.2459H16.2542H16.2624H16.2706H16.2789H16.2871H16.2953H16.3036H16.3118H16.3201H16.3283H16.3365H16.3448H16.353H16.3612H16.3695H16.3777H16.3859H16.3942H16.4024H16.4107H16.4189H16.4271H16.4354H16.4436H16.4518H16.4601H16.4683H16.4765H16.4848H16.493H16.5012H16.5095H16.5177H16.526H16.5342H16.5424H16.5507H16.5589H16.5671H16.5754H16.5836H16.5918H16.6001H16.6083H16.6165H16.6248H16.633H16.6413H16.6495H16.6577H16.666H16.6742H16.6824H16.6907H16.6989H16.7071H16.7154H16.7236H16.7319H16.7401H16.7483H16.7566H16.7648H16.773H16.7813H16.7895H16.7977H16.806H16.8142H16.8224H16.8307H16.8389H16.8472H16.8554H16.8636H16.8719H16.8801H16.8883H16.8966H16.9048H16.913H16.9213H16.9295H16.9378H16.946H16.9542H16.9625H16.9707H16.9789H16.9872H16.9954H17.0036H17.0119H17.0201H17.0283H17.0366H17.0448H17.0531H17.0613H17.0695H17.0778H17.086H17.0942H17.1025H17.1107H17.1189H17.1272H17.1354H17.1437H17.1519H17.1601H17.1684H17.1766H17.1848H17.1931H17.2013H17.2095H17.2178H17.226H17.2342H17.2425H17.2507H17.259H17.2672H17.5438L17.5159 15.954C17.4661 15.4627 17.3474 14.9881 17.1602 14.5309L17.1604 14.5308L17.1557 14.5207C16.3512 12.7811 14.9854 11.7729 13.084 11.5147ZM13.6123 16.6665L13.0853 16.6892L13.4365 17.0827C14.2324 17.9745 15.0405 18.8608 15.8608 19.7417L16.045 19.9394L16.2278 19.7405C16.9679 18.9354 17.3981 17.983 17.5158 16.891L17.5451 16.6181L17.2707 16.6142C16.0423 16.5969 14.8228 16.6143 13.6123 16.6665ZM25.7676 23.5444C25.7846 23.5166 25.8025 23.4898 25.8214 23.464C26.3916 23.4582 26.9616 23.4662 27.5315 23.4879C27.5455 23.5058 27.5544 23.5261 27.5595 23.5509C27.5936 25.8298 27.5938 28.1087 27.5601 30.3876C27.533 30.4309 27.4984 30.4649 27.4544 30.4916C26.9205 30.522 26.3866 30.5216 25.8526 30.4904C25.8105 30.4739 25.7851 30.4493 25.768 30.4084C25.7342 28.1204 25.7341 25.8324 25.7676 23.5444ZM19.3643 24.9376C19.3679 24.9317 19.3716 24.9266 19.3755 24.9221C19.9522 24.9154 20.5287 24.9236 21.105 24.9466C21.1383 26.7809 21.1382 28.6151 21.1048 30.4493C21.098 30.4607 21.0918 30.4669 21.0875 30.4704C21.0809 30.4758 21.0678 30.4841 21.0398 30.4893C20.503 30.5223 19.9662 30.5223 19.4293 30.4893C19.4014 30.4841 19.3882 30.4758 19.3817 30.4704C19.3774 30.4669 19.3711 30.4607 19.3643 30.4493C19.3309 28.6121 19.3309 26.7748 19.3643 24.9376ZM16.1351 27.3586C16.1662 27.3201 16.2008 27.2893 16.2394 27.2649C16.7681 27.258 17.2966 27.2661 17.8248 27.2891C17.8687 27.316 17.9032 27.3503 17.9303 27.394C17.9623 28.3913 17.9623 29.3885 17.9303 30.3858C17.9029 30.43 17.868 30.4646 17.8234 30.4916C17.2904 30.5219 16.7574 30.5216 16.2244 30.4906C16.1879 30.4754 16.159 30.4544 16.1353 30.4257C16.1037 29.4033 16.1037 28.381 16.1351 27.3586ZM22.5391 27.4261C22.5641 27.3578 22.6018 27.3056 22.6538 27.2647C23.187 27.258 23.7199 27.2665 24.2526 27.2902C24.2885 27.303 24.314 27.3213 24.3336 27.3469C24.3655 28.3756 24.3655 29.4043 24.3336 30.433C24.3138 30.4589 24.2879 30.4774 24.2512 30.4902C23.715 30.5216 23.1788 30.522 22.6427 30.4914C22.6221 30.4797 22.6031 30.4661 22.5855 30.4504C22.5081 29.4454 22.4926 28.4374 22.5391 27.4261Z" stroke="black" stroke-width="0.5"/>
<path opacity="0.935" d="M20.892 13.4036C20.9286 13.3609 20.9673 13.3323 21.0089 13.3137C23.723 13.3053 26.4369 13.3139 29.1509 13.3396C29.2473 13.3711 29.279 13.408 29.2902 13.4279C29.3018 13.4483 29.3177 13.4971 29.2911 13.6033C29.2784 13.629 29.2632 13.6525 29.245 13.6741C26.4773 13.7073 23.7096 13.7072 20.9419 13.6738C20.8925 13.6321 20.8741 13.5967 20.867 13.5712C20.8584 13.5406 20.8562 13.4887 20.892 13.4036Z" stroke="black" stroke-width="0.5"/>
<path opacity="0.932" d="M23.5579 16.3119C23.5877 16.2814 23.6182 16.2538 23.6492 16.2288C25.5027 16.2209 27.3562 16.2293 29.2096 16.2541C29.2661 16.3019 29.2877 16.3434 29.2959 16.3751C29.3056 16.4124 29.306 16.4721 29.2658 16.5652C29.252 16.5766 29.2364 16.5841 29.2166 16.5886C27.3601 16.6224 25.5035 16.6228 23.647 16.5896C23.5977 16.5497 23.5734 16.5115 23.5613 16.4777C23.5479 16.4406 23.5417 16.388 23.5579 16.3119Z" stroke="black" stroke-width="0.5"/>
<path opacity="0.923" d="M23.2696 22.3452L23.2583 22.3391L23.2464 22.3341L21.971 21.8005L20.6955 21.2669L20.5572 21.209L20.441 21.3038C19.3586 22.1867 18.2838 23.0795 17.2165 23.9821C17.1316 24.0436 17.0691 24.0579 17.024 24.0563C16.9849 24.0548 16.9335 24.0403 16.8683 23.9923C16.831 23.9054 16.8312 23.8255 16.8689 23.7385C18.0226 22.7827 19.1716 21.8208 20.316 20.8531C20.4172 20.8122 20.5196 20.8032 20.6294 20.8261C21.5012 21.1718 22.3701 21.5246 23.2362 21.8845L23.3884 21.9478L23.5066 21.8328C24.4739 20.8907 25.4471 19.9594 26.426 19.039C26.5861 19.0435 26.6358 19.0846 26.6472 19.0987C26.6574 19.1113 26.6895 19.1688 26.6482 19.3384C25.6394 20.3631 24.6155 21.3699 23.5764 22.3587C23.4711 22.4083 23.377 22.4038 23.2696 22.3452Z" stroke="black" stroke-width="0.5"/>
</svg>
