<svg width="708" height="169" viewBox="0 0 708 169" fill="none" xmlns="http://www.w3.org/2000/svg">
<path d="M225.792 71L232.448 23.32H247.168C251.776 23.32 255.808 24.2373 259.264 26.072C262.72 27.9067 265.408 30.4453 267.328 33.688C269.291 36.9307 270.272 40.664 270.272 44.888C270.272 48.6427 269.632 52.12 268.352 55.32C267.072 58.4773 265.237 61.2293 262.848 63.576C260.459 65.9227 257.621 67.7573 254.336 69.08C251.051 70.36 247.381 71 243.328 71H225.792ZM236.928 62.36H243.328C245.845 62.36 248.128 61.9547 250.176 61.144C252.267 60.2907 254.059 59.096 255.552 57.56C257.045 55.9813 258.197 54.1467 259.008 52.056C259.861 49.9227 260.288 47.576 260.288 45.016C260.288 42.328 259.733 40.0027 258.624 38.04C257.515 36.0773 255.936 34.584 253.888 33.56C251.84 32.4933 249.387 31.96 246.528 31.96H241.152L236.928 62.36ZM290.956 71.768C287.415 71.768 284.343 71.0213 281.74 69.528C279.137 67.992 277.132 65.9227 275.724 63.32C274.359 60.7173 273.676 57.8373 273.676 54.68C273.676 51.992 274.145 49.496 275.084 47.192C276.023 44.8453 277.345 42.776 279.052 40.984C280.759 39.192 282.743 37.8053 285.004 36.824C287.265 35.8 289.719 35.288 292.364 35.288C295.905 35.288 298.892 35.992 301.324 37.4C303.756 38.7653 305.591 40.6427 306.828 43.032C308.108 45.4213 308.748 48.1307 308.748 51.16C308.748 51.9707 308.684 52.7813 308.556 53.592C308.428 54.4027 308.257 55.2773 308.044 56.216H281.804L282.316 49.176H303.052L298.252 52.376C298.807 50.584 298.913 48.984 298.572 47.576C298.231 46.168 297.505 45.0587 296.396 44.248C295.329 43.3947 293.964 42.968 292.3 42.968C290.124 42.968 288.396 43.5227 287.116 44.632C285.836 45.7413 284.897 47.2133 284.3 49.048C283.745 50.8827 283.468 52.9093 283.468 55.128C283.468 56.8773 283.767 58.392 284.364 59.672C284.961 60.9093 285.836 61.848 286.988 62.488C288.14 63.128 289.527 63.448 291.148 63.448C292.897 63.448 294.433 63.0853 295.756 62.36C297.079 61.6347 298.103 60.6747 298.828 59.48L306.38 63.384C305.569 65.0907 304.396 66.584 302.86 67.864C301.324 69.1013 299.532 70.0613 297.484 70.744C295.479 71.4267 293.303 71.768 290.956 71.768ZM321.406 71L312.574 36.056H322.558L328.382 62.488H324.222L337.47 36.056H348.414L329.726 71H321.406ZM365.519 71.768C361.977 71.768 358.905 71.0213 356.303 69.528C353.7 67.992 351.695 65.9227 350.286 63.32C348.921 60.7173 348.239 57.8373 348.239 54.68C348.239 51.992 348.708 49.496 349.647 47.192C350.585 44.8453 351.908 42.776 353.615 40.984C355.321 39.192 357.305 37.8053 359.567 36.824C361.828 35.8 364.281 35.288 366.927 35.288C370.468 35.288 373.455 35.992 375.887 37.4C378.319 38.7653 380.153 40.6427 381.391 43.032C382.671 45.4213 383.311 48.1307 383.311 51.16C383.311 51.9707 383.247 52.7813 383.119 53.592C382.991 54.4027 382.82 55.2773 382.607 56.216H356.367L356.879 49.176H377.615L372.815 52.376C373.369 50.584 373.476 48.984 373.135 47.576C372.793 46.168 372.068 45.0587 370.959 44.248C369.892 43.3947 368.527 42.968 366.863 42.968C364.687 42.968 362.959 43.5227 361.679 44.632C360.399 45.7413 359.46 47.2133 358.863 49.048C358.308 50.8827 358.031 52.9093 358.031 55.128C358.031 56.8773 358.329 58.392 358.927 59.672C359.524 60.9093 360.399 61.848 361.551 62.488C362.703 63.128 364.089 63.448 365.711 63.448C367.46 63.448 368.996 63.0853 370.319 62.36C371.641 61.6347 372.665 60.6747 373.391 59.48L380.943 63.384C380.132 65.0907 378.959 66.584 377.423 67.864C375.887 69.1013 374.095 70.0613 372.047 70.744C370.041 71.4267 367.865 71.768 365.519 71.768ZM386.338 71L393.122 22.552H402.786L396.002 71H386.338ZM421.906 71.768C418.578 71.768 415.57 71.0427 412.882 69.592C410.194 68.0987 408.06 66.0507 406.482 63.448C404.903 60.8453 404.114 57.88 404.114 54.552C404.114 51.864 404.626 49.3467 405.65 47C406.674 44.6533 408.103 42.6053 409.938 40.856C411.772 39.1067 413.884 37.7413 416.274 36.76C418.663 35.7787 421.223 35.288 423.954 35.288C427.282 35.288 430.29 36.0347 432.978 37.528C435.666 38.9787 437.778 41.0053 439.314 43.608C440.892 46.168 441.682 49.1333 441.682 52.504C441.682 55.192 441.17 57.7093 440.146 60.056C439.122 62.36 437.692 64.408 435.858 66.2C434.023 67.9493 431.911 69.3147 429.522 70.296C427.132 71.2773 424.594 71.768 421.906 71.768ZM422.034 63.128C423.954 63.128 425.639 62.6587 427.09 61.72C428.54 60.7387 429.671 59.4373 430.482 57.816C431.292 56.1947 431.698 54.3813 431.698 52.376C431.698 50.712 431.378 49.2613 430.738 48.024C430.098 46.744 429.18 45.7413 427.986 45.016C426.834 44.2907 425.447 43.928 423.826 43.928C421.906 43.928 420.199 44.4187 418.706 45.4C417.255 46.3387 416.124 47.6187 415.314 49.24C414.503 50.8613 414.098 52.6747 414.098 54.68C414.098 56.344 414.418 57.816 415.058 59.096C415.698 60.3333 416.615 61.3147 417.81 62.04C419.004 62.7653 420.412 63.128 422.034 63.128ZM443.171 83.8L449.827 36.056H458.851L458.019 42.712L456.163 40.664C457.443 38.9147 459.086 37.592 461.091 36.696C463.139 35.7573 465.4 35.288 467.875 35.288C471.118 35.288 473.998 36.056 476.515 37.592C479.032 39.0853 481.016 41.1333 482.467 43.736C483.96 46.296 484.707 49.1973 484.707 52.44C484.707 55.0853 484.216 57.5813 483.235 59.928C482.254 62.2747 480.888 64.344 479.139 66.136C477.432 67.8853 475.427 69.272 473.123 70.296C470.862 71.2773 468.408 71.768 465.763 71.768C463.16 71.768 460.792 71.32 458.659 70.424C456.568 69.4853 454.926 68.1627 453.731 66.456L455.843 64.6L453.219 83.8H443.171ZM464.739 63.128C466.702 63.128 468.43 62.6587 469.923 61.72C471.416 60.7813 472.59 59.5013 473.443 57.88C474.296 56.2587 474.723 54.4453 474.723 52.44C474.723 50.776 474.382 49.304 473.699 48.024C473.016 46.744 472.056 45.7413 470.819 45.016C469.624 44.2907 468.195 43.928 466.531 43.928C464.611 43.928 462.904 44.4187 461.411 45.4C459.96 46.3387 458.83 47.6187 458.019 49.24C457.208 50.8613 456.803 52.6747 456.803 54.68C456.803 56.344 457.123 57.816 457.763 59.096C458.446 60.376 459.384 61.3787 460.579 62.104C461.774 62.7867 463.16 63.128 464.739 63.128ZM487.963 71L492.827 36.056H501.787L500.699 44.184L499.739 42.84C500.848 40.1093 502.342 38.168 504.219 37.016C506.096 35.864 508.336 35.288 510.939 35.288C513.84 35.288 516.294 36.0347 518.299 37.528C520.304 38.9787 521.606 40.9413 522.203 43.416L518.747 43.672C520.368 40.6427 522.374 38.488 524.763 37.208C527.152 35.928 529.798 35.288 532.699 35.288C535.302 35.288 537.52 35.864 539.355 37.016C541.19 38.168 542.534 39.768 543.387 41.816C544.283 43.8213 544.539 46.1467 544.155 48.792L541.083 71H531.483L534.299 50.584C534.512 49.2187 534.427 48.0453 534.043 47.064C533.702 46.0827 533.126 45.3147 532.315 44.76C531.504 44.2053 530.459 43.928 529.179 43.928C527.942 43.928 526.811 44.2053 525.787 44.76C524.806 45.3147 523.995 46.0827 523.355 47.064C522.758 48.0453 522.352 49.2187 522.139 50.584L519.323 71H509.723L512.539 50.584C512.752 49.2187 512.667 48.0453 512.283 47.064C511.942 46.0827 511.366 45.3147 510.555 44.76C509.744 44.2053 508.699 43.928 507.419 43.928C506.182 43.928 505.051 44.2053 504.027 44.76C503.046 45.3147 502.235 46.0827 501.595 47.064C500.998 48.0453 500.592 49.2187 500.379 50.584L497.563 71H487.963ZM565.769 71.768C562.227 71.768 559.155 71.0213 556.553 69.528C553.95 67.992 551.945 65.9227 550.536 63.32C549.171 60.7173 548.489 57.8373 548.489 54.68C548.489 51.992 548.958 49.496 549.897 47.192C550.835 44.8453 552.158 42.776 553.865 40.984C555.571 39.192 557.555 37.8053 559.817 36.824C562.078 35.8 564.531 35.288 567.177 35.288C570.718 35.288 573.705 35.992 576.137 37.4C578.569 38.7653 580.403 40.6427 581.641 43.032C582.921 45.4213 583.561 48.1307 583.561 51.16C583.561 51.9707 583.497 52.7813 583.369 53.592C583.241 54.4027 583.07 55.2773 582.857 56.216H556.617L557.129 49.176H577.865L573.065 52.376C573.619 50.584 573.726 48.984 573.385 47.576C573.043 46.168 572.318 45.0587 571.209 44.248C570.142 43.3947 568.777 42.968 567.113 42.968C564.937 42.968 563.209 43.5227 561.929 44.632C560.649 45.7413 559.71 47.2133 559.113 49.048C558.558 50.8827 558.281 52.9093 558.281 55.128C558.281 56.8773 558.579 58.392 559.177 59.672C559.774 60.9093 560.649 61.848 561.801 62.488C562.953 63.128 564.339 63.448 565.961 63.448C567.71 63.448 569.246 63.0853 570.569 62.36C571.891 61.6347 572.915 60.6747 573.641 59.48L581.193 63.384C580.382 65.0907 579.209 66.584 577.673 67.864C576.137 69.1013 574.345 70.0613 572.297 70.744C570.291 71.4267 568.115 71.768 565.769 71.768ZM586.588 71L591.452 36.056H600.412L599.516 42.968L599.132 41.176C600.241 39.0853 601.713 37.592 603.548 36.696C605.425 35.7573 607.537 35.288 609.884 35.288C612.572 35.288 614.855 35.928 616.732 37.208C618.609 38.4453 619.975 40.1307 620.828 42.264C621.724 44.3973 621.98 46.7867 621.596 49.432L618.588 71H608.988L611.804 50.584C612.103 48.5787 611.74 46.9787 610.716 45.784C609.692 44.5467 608.241 43.928 606.364 43.928C605.127 43.928 603.975 44.2053 602.908 44.76C601.884 45.3147 601.031 46.0827 600.348 47.064C599.665 48.0453 599.217 49.2187 599.004 50.584L596.188 71H586.588ZM642.117 71.384C637.807 71.384 634.607 70.2107 632.517 67.864C630.426 65.4747 629.658 62.232 630.213 58.136L632.133 44.376H626.245L627.397 36.056H627.525C629.317 36.056 630.789 35.5653 631.941 34.584C633.135 33.6027 633.861 32.216 634.117 30.424L634.437 28.12H644.165L643.013 36.056H651.077L649.925 44.376H641.861L639.941 58.008C639.77 59.2027 639.813 60.184 640.069 60.952C640.325 61.6773 640.815 62.2107 641.541 62.552C642.309 62.8933 643.333 63.064 644.613 63.064C644.997 63.064 645.359 63.064 645.701 63.064C646.085 63.0213 646.554 62.9573 647.109 62.872L646.405 71C645.765 71.1707 645.039 71.2773 644.229 71.32C643.461 71.3627 642.757 71.384 642.117 71.384ZM225.792 131L232.448 83.32H247.168C251.776 83.32 255.808 84.2373 259.264 86.072C262.72 87.9067 265.408 90.4453 267.328 93.688C269.291 96.9307 270.272 100.664 270.272 104.888C270.272 108.643 269.632 112.12 268.352 115.32C267.072 118.477 265.237 121.229 262.848 123.576C260.459 125.923 257.621 127.757 254.336 129.08C251.051 130.36 247.381 131 243.328 131H225.792ZM236.928 122.36H243.328C245.845 122.36 248.128 121.955 250.176 121.144C252.267 120.291 254.059 119.096 255.552 117.56C257.045 115.981 258.197 114.147 259.008 112.056C259.861 109.923 260.288 107.576 260.288 105.016C260.288 102.328 259.733 100.003 258.624 98.04C257.515 96.0773 255.936 94.584 253.888 93.56C251.84 92.4933 249.387 91.96 246.528 91.96H241.152L236.928 122.36ZM284.172 131.768C281.825 131.768 279.777 131.405 278.028 130.68C276.279 129.955 274.913 128.888 273.932 127.48C272.993 126.029 272.524 124.28 272.524 122.232C272.524 119.928 273.1 117.987 274.252 116.408C275.447 114.787 277.047 113.485 279.052 112.504C281.1 111.523 283.404 110.84 285.964 110.456L296.972 108.728L296.268 115.768L287.308 117.432C285.985 117.688 284.833 118.157 283.852 118.84C282.913 119.48 282.444 120.419 282.444 121.656C282.444 122.723 282.828 123.512 283.596 124.024C284.364 124.493 285.345 124.728 286.54 124.728C288.119 124.728 289.505 124.365 290.7 123.64C291.937 122.915 292.94 121.955 293.708 120.76C294.519 119.565 295.009 118.264 295.18 116.856L296.396 107.96C296.524 106.979 296.353 106.147 295.884 105.464C295.415 104.781 294.753 104.248 293.9 103.864C293.047 103.48 292.108 103.288 291.084 103.288C289.249 103.288 287.607 103.8 286.156 104.824C284.705 105.805 283.617 107.064 282.892 108.6L275.468 104.568C276.364 102.605 277.623 100.941 279.244 99.576C280.865 98.2107 282.743 97.1653 284.876 96.44C287.009 95.672 289.271 95.288 291.66 95.288C294.604 95.288 297.207 95.8427 299.468 96.952C301.772 98.0613 303.521 99.5973 304.716 101.56C305.953 103.523 306.38 105.805 305.996 108.408L302.86 131H293.836L294.604 125.368L297.164 125.176C295.969 126.712 294.711 127.971 293.388 128.952C292.065 129.933 290.636 130.637 289.1 131.064C287.607 131.533 285.964 131.768 284.172 131.768ZM324.109 131.768C321.591 131.768 319.266 131.341 317.133 130.488C315.042 129.635 313.293 128.44 311.885 126.904C310.477 125.368 309.538 123.576 309.069 121.528L316.301 118.584C317.026 120.419 318.071 121.848 319.437 122.872C320.845 123.896 322.487 124.408 324.365 124.408C325.943 124.408 327.117 124.088 327.885 123.448C328.695 122.808 329.101 122.04 329.101 121.144C329.101 120.205 328.759 119.544 328.077 119.16C327.394 118.733 326.754 118.435 326.157 118.264L320.333 116.6C317.773 115.875 315.789 114.68 314.381 113.016C313.015 111.309 312.333 109.283 312.333 106.936C312.333 104.675 312.93 102.669 314.125 100.92C315.362 99.1707 317.047 97.8053 319.181 96.824C321.314 95.8 323.725 95.288 326.413 95.288C329.911 95.288 332.877 96.12 335.309 97.784C337.783 99.448 339.426 101.731 340.237 104.632L332.877 107.576C332.578 106.168 331.767 105.059 330.445 104.248C329.122 103.395 327.671 102.968 326.093 102.968C324.77 102.968 323.682 103.245 322.829 103.8C322.018 104.312 321.613 105.059 321.613 106.04C321.613 106.979 321.975 107.661 322.701 108.088C323.426 108.515 324.173 108.835 324.941 109.048L330.317 110.712C332.962 111.523 334.967 112.739 336.333 114.36C337.741 115.981 338.445 117.923 338.445 120.184C338.445 122.36 337.826 124.323 336.589 126.072C335.394 127.821 333.709 129.208 331.533 130.232C329.399 131.256 326.925 131.768 324.109 131.768ZM342.651 131L349.435 82.552H358.971L356.155 102.968L355.195 101.176C356.304 99.0853 357.776 97.592 359.611 96.696C361.488 95.7573 363.6 95.288 365.947 95.288C368.635 95.288 370.917 95.928 372.795 97.208C374.672 98.4453 376.037 100.131 376.891 102.264C377.787 104.397 378.043 106.787 377.659 109.432L374.651 131H365.051L367.867 110.584C368.165 108.579 367.803 106.979 366.779 105.784C365.755 104.547 364.304 103.928 362.427 103.928C361.189 103.928 360.037 104.205 358.971 104.76C357.947 105.315 357.093 106.083 356.411 107.064C355.728 108.045 355.28 109.219 355.067 110.584L352.251 131H342.651ZM401.763 131.768C399.16 131.768 396.792 131.32 394.659 130.424C392.568 129.485 390.926 128.163 389.731 126.456L390.883 124.6L390.051 131H380.963L387.747 82.552H397.411L394.659 102.712L392.163 100.664C393.443 98.9147 395.086 97.592 397.091 96.696C399.139 95.7573 401.4 95.288 403.875 95.288C407.118 95.288 409.998 96.056 412.515 97.592C415.032 99.0853 417.016 101.133 418.467 103.736C419.96 106.296 420.707 109.197 420.707 112.44C420.707 115.085 420.216 117.581 419.235 119.928C418.254 122.275 416.888 124.344 415.139 126.136C413.432 127.885 411.427 129.272 409.123 130.296C406.862 131.277 404.408 131.768 401.763 131.768ZM400.739 123.128C402.702 123.128 404.43 122.659 405.923 121.72C407.416 120.781 408.59 119.501 409.443 117.88C410.296 116.259 410.723 114.445 410.723 112.44C410.723 110.776 410.382 109.304 409.699 108.024C409.016 106.744 408.056 105.741 406.819 105.016C405.624 104.291 404.195 103.928 402.531 103.928C400.611 103.928 398.904 104.419 397.411 105.4C395.96 106.339 394.83 107.619 394.019 109.24C393.208 110.861 392.803 112.675 392.803 114.68C392.803 116.344 393.123 117.816 393.763 119.096C394.446 120.376 395.384 121.379 396.579 122.104C397.774 122.787 399.16 123.128 400.739 123.128ZM442.843 131.768C439.515 131.768 436.507 131.043 433.819 129.592C431.131 128.099 428.998 126.051 427.419 123.448C425.84 120.845 425.051 117.88 425.051 114.552C425.051 111.864 425.563 109.347 426.587 107C427.611 104.653 429.04 102.605 430.875 100.856C432.71 99.1067 434.822 97.7413 437.211 96.76C439.6 95.7787 442.16 95.288 444.891 95.288C448.219 95.288 451.227 96.0347 453.915 97.528C456.603 98.9787 458.715 101.005 460.251 103.608C461.83 106.168 462.619 109.133 462.619 112.504C462.619 115.192 462.107 117.709 461.083 120.056C460.059 122.36 458.63 124.408 456.795 126.2C454.96 127.949 452.848 129.315 450.459 130.296C448.07 131.277 445.531 131.768 442.843 131.768ZM442.971 123.128C444.891 123.128 446.576 122.659 448.027 121.72C449.478 120.739 450.608 119.437 451.419 117.816C452.23 116.195 452.635 114.381 452.635 112.376C452.635 110.712 452.315 109.261 451.675 108.024C451.035 106.744 450.118 105.741 448.923 105.016C447.771 104.291 446.384 103.928 444.763 103.928C442.843 103.928 441.136 104.419 439.643 105.4C438.192 106.339 437.062 107.619 436.251 109.24C435.44 110.861 435.035 112.675 435.035 114.68C435.035 116.344 435.355 117.816 435.995 119.096C436.635 120.333 437.552 121.315 438.747 122.04C439.942 122.765 441.35 123.128 442.971 123.128ZM477.485 131.768C475.138 131.768 473.09 131.405 471.341 130.68C469.591 129.955 468.226 128.888 467.245 127.48C466.306 126.029 465.837 124.28 465.837 122.232C465.837 119.928 466.413 117.987 467.565 116.408C468.759 114.787 470.359 113.485 472.365 112.504C474.413 111.523 476.717 110.84 479.277 110.456L490.285 108.728L489.581 115.768L480.621 117.432C479.298 117.688 478.146 118.157 477.165 118.84C476.226 119.48 475.757 120.419 475.757 121.656C475.757 122.723 476.141 123.512 476.909 124.024C477.677 124.493 478.658 124.728 479.853 124.728C481.431 124.728 482.818 124.365 484.013 123.64C485.25 122.915 486.253 121.955 487.021 120.76C487.831 119.565 488.322 118.264 488.493 116.856L489.709 107.96C489.837 106.979 489.666 106.147 489.197 105.464C488.727 104.781 488.066 104.248 487.213 103.864C486.359 103.48 485.421 103.288 484.397 103.288C482.562 103.288 480.919 103.8 479.469 104.824C478.018 105.805 476.93 107.064 476.205 108.6L468.781 104.568C469.677 102.605 470.935 100.941 472.557 99.576C474.178 98.2107 476.055 97.1653 478.189 96.44C480.322 95.672 482.583 95.288 484.973 95.288C487.917 95.288 490.519 95.8427 492.781 96.952C495.085 98.0613 496.834 99.5973 498.029 101.56C499.266 103.523 499.693 105.805 499.309 108.408L496.173 131H487.149L487.917 125.368L490.477 125.176C489.282 126.712 488.023 127.971 486.701 128.952C485.378 129.933 483.949 130.637 482.413 131.064C480.919 131.533 479.277 131.768 477.485 131.768ZM503.213 131L508.077 96.056H517.101L515.949 104.44L515.437 103.224C516.632 100.28 518.168 98.296 520.045 97.272C521.965 96.2053 524.141 95.672 526.573 95.672H528.621L527.469 103.992H524.461C522.114 103.992 520.109 104.739 518.445 106.232C516.824 107.725 515.8 109.923 515.373 112.824L512.877 131H503.213ZM545.693 131.768C542.365 131.768 539.442 131.064 536.925 129.656C534.407 128.248 532.445 126.307 531.036 123.832C529.628 121.315 528.924 118.435 528.924 115.192C528.924 112.163 529.437 109.432 530.461 107C531.527 104.568 532.957 102.477 534.749 100.728C536.583 98.9787 538.674 97.6347 541.021 96.696C543.41 95.7573 545.906 95.288 548.509 95.288C551.154 95.288 553.479 95.8 555.485 96.824C557.49 97.8053 559.047 99.1707 560.157 100.92L557.981 102.712L560.733 82.552H570.461L563.677 131H554.653L555.485 124.6L557.533 126.072C556.253 127.992 554.546 129.421 552.413 130.36C550.322 131.299 548.082 131.768 545.693 131.768ZM547.101 123.128C549.063 123.128 550.77 122.659 552.221 121.72C553.671 120.739 554.802 119.437 555.613 117.816C556.423 116.195 556.829 114.381 556.829 112.376C556.829 110.755 556.487 109.304 555.805 108.024C555.165 106.744 554.247 105.741 553.053 105.016C551.901 104.291 550.514 103.928 548.893 103.928C546.973 103.928 545.245 104.397 543.708 105.336C542.215 106.275 541.042 107.555 540.189 109.176C539.335 110.755 538.909 112.568 538.909 114.616C538.909 116.28 539.25 117.752 539.933 119.032C540.615 120.312 541.575 121.315 542.812 122.04C544.05 122.765 545.479 123.128 547.101 123.128Z" fill="#020202"/>
<path d="M91.2105 1.30753C88.8604 1.51767 84.6722 2.17143 82.2988 2.68511C80.926 3.01199 78.7621 3.43227 77.5289 3.61906C74.0387 4.17943 70.9673 4.92659 65.732 6.44426C61.0784 7.82184 60.7294 7.93858 57.4719 9.22276C55.7501 9.89988 54.0282 10.5303 53.6327 10.6237C52.7485 10.8105 43.325 15.4802 41.7195 16.5076C41.0447 16.9279 40.2303 17.3948 39.9046 17.5116C39.5788 17.6283 38.2758 18.4689 37.0193 19.3561C35.7396 20.2434 34.4599 21.1073 34.1574 21.2707C33.2034 21.7844 29.1082 25.0065 27.1072 26.8511C25.4319 28.3921 22.0115 31.9178 20.755 33.3887C20.1733 34.0892 19.3124 35.0698 18.8703 35.5368C18.4282 36.0271 17.8 36.821 17.4742 37.3347C17.1485 37.825 16.4272 38.8056 15.892 39.5061C15.3801 40.2066 14.3796 41.7242 13.7048 42.8683C13.0301 44.0124 12.3553 45.1098 12.2157 45.2966C11.6573 45.9971 10.7033 47.9584 8.32993 53.2352C8.00418 53.9357 7.32941 55.8736 6.79425 57.5547C4.07189 66.3338 3.95555 67.011 3.79268 75.8134C3.60654 86.5305 4.02536 89.4725 6.09621 91.5739C7.0502 92.5545 7.32941 92.6946 8.12052 92.6946C9.00471 92.6946 9.09778 92.6246 9.5864 91.6906C9.95869 90.9668 10.0983 90.1729 10.1681 88.7253C10.6335 78.3351 11.0058 75.4632 12.7043 68.8789C13.1697 67.1511 13.6816 65.1431 13.8444 64.4426C14.1469 63.065 15.1242 60.45 16.7995 56.4807C19.0565 51.1338 23.1051 44.7596 27.2701 40.0198C30.2251 36.6342 34.5297 32.5015 36.4144 31.2173C36.9263 30.8904 37.9035 30.1433 38.6016 29.5595C39.2763 28.9992 40.114 28.3921 40.463 28.2287C40.7888 28.0419 41.7427 27.4815 42.5804 26.9445C43.418 26.4308 44.4186 25.8004 44.7909 25.5436C46.1637 24.6796 53.4233 21.2007 54.4471 20.8971C55.0288 20.7337 56.3783 20.3134 57.4719 19.9632C61.0319 18.8425 63.5448 18.212 64.5221 18.212C65.3597 18.212 65.4295 18.2587 65.1503 18.5389C64.6617 19.0292 61.5903 20.687 60.5665 21.0372C60.0779 21.2007 58.5422 21.8778 57.1229 22.5316C55.7268 23.2087 53.5163 24.1893 52.2366 24.7497C50.9569 25.2867 49.6073 25.9171 49.2118 26.1506C48.8395 26.3841 47.4667 27.1079 46.1869 27.785C44.9072 28.4621 43.1156 29.5829 42.1848 30.26C41.2541 30.9605 40.4165 31.5208 40.3001 31.5208C39.8115 31.5208 32.8078 38.2219 30.0157 41.3507C29.2013 42.2613 28.1077 43.6155 27.5958 44.3393C27.1072 45.0631 26.572 45.7402 26.4324 45.8803C26.0834 46.1839 25.1294 47.4914 24.5012 48.5654C24.2452 49.0091 23.3378 50.5267 22.4769 51.9277C21.6392 53.3286 20.9412 54.6595 20.9412 54.8696C20.9412 55.0564 20.8016 55.43 20.6154 55.6868C19.9407 56.6675 18.149 61.1971 17.3114 63.9756C14.8682 72.2411 14.5425 74.8561 14.5658 86.8574C14.589 98.7886 15.1009 106.937 16.0782 110.79C16.7762 113.545 18.2654 117.678 19.5218 120.269C20.3129 121.904 20.9412 123.328 20.9412 123.445C20.9412 123.795 23.4774 127.928 24.6175 129.469C26.8978 132.504 37.7872 142.918 39.3229 143.548C39.509 143.618 40.6957 144.459 41.9522 145.393C43.2086 146.327 44.3255 147.097 44.4186 147.097C44.5116 147.097 45.4656 147.681 46.5592 148.381C49.0256 150.039 55.9827 153.495 57.8209 154.008C62.9864 155.456 67.8029 156.577 71.9911 157.301C72.6426 157.394 73.2476 157.651 73.3872 157.884C73.8526 158.632 73.201 158.888 70.5485 158.958C68.5475 159.028 67.5004 158.912 65.1503 158.421C63.5448 158.071 61.823 157.744 61.3111 157.674C59.6824 157.464 52.0737 155.059 50.7707 154.359C50.4915 154.219 50.1192 154.102 49.8865 154.102C49.6771 154.102 47.932 153.308 46.0008 152.351C44.0928 151.393 42.4641 150.6 42.3477 150.6C42.1616 150.6 37.8803 147.798 37.6941 147.564C37.6243 147.471 37.2986 147.261 36.9495 147.074C34.297 145.696 23.7101 135.236 21.1739 131.477C20.2199 130.076 16.1945 125.313 15.2638 124.496C13.1697 122.651 11.5409 124.332 11.983 127.905C12.1226 129.095 12.588 130.52 13.9142 133.952C14.7286 136.053 17.9163 140.98 20.0105 143.361C22.058 145.72 25.7809 149.409 28.0612 151.37C30.6439 153.588 35.1812 156.904 36.6936 157.674C37.2986 157.978 38.9739 158.818 40.3932 159.542C41.8126 160.266 43.2784 160.92 43.6507 161.013C44.023 161.106 45.6285 161.69 47.234 162.274C51.7712 164.002 53.1673 164.329 60.9621 165.659C69.0128 167.014 76.9472 167.037 85.5098 165.753C92.7927 164.679 97.0973 163.722 101.89 162.134C103.612 161.573 105.125 161.106 105.241 161.106C105.544 161.106 109.592 159.449 111.779 158.445C112.78 157.978 113.687 157.604 113.804 157.604C113.92 157.604 115.363 156.904 116.991 156.04C118.62 155.199 120.272 154.335 120.644 154.149C121.436 153.752 125.368 151.113 125.833 150.67C125.996 150.506 126.252 150.366 126.368 150.366C126.694 150.366 128.346 149.199 129.37 148.288C129.812 147.868 130.557 147.284 130.999 146.98C131.906 146.373 138.747 139.579 140.888 137.151C141.655 136.287 142.633 135.073 143.028 134.442C143.447 133.812 144.145 132.854 144.564 132.317C145.611 131.033 149.241 125.406 150.195 123.632C150.614 122.861 151.475 121.273 152.103 120.129C152.731 118.962 153.406 117.608 153.569 117.094C153.732 116.58 154.034 115.833 154.267 115.46C154.872 114.409 156.803 109.482 156.966 108.572C157.036 108.128 157.361 106.891 157.687 105.84C158.641 102.548 159.595 97.4577 159.735 94.7259C159.804 93.2783 159.921 91.2937 159.967 90.2897C160.107 87.8381 159.688 77.7514 159.269 73.3151C158.827 68.9723 158.176 64.5827 157.571 61.8742C157.315 60.7768 157.036 59.446 156.966 58.8856C156.617 56.2472 153.452 48.1919 151.824 45.7869C151.428 45.2032 150.753 44.1058 150.358 43.3587C149.59 41.9344 148.17 39.7863 147.24 38.6189C146.961 38.2453 145.029 36.2606 142.982 34.1826C139.352 30.5635 133.721 25.9872 130.975 24.4462C130.417 24.1193 129.393 23.4889 128.718 23.0219C126.345 21.4342 119.69 18.2354 116.759 17.3014C112.919 16.064 112.64 15.9939 108.126 15.2934C103.17 14.5229 101.681 14.0793 101.216 13.2387C100.75 12.4215 101.099 11.8612 102.263 11.5576C103.519 11.2541 108.917 11.9779 112.826 12.9819C114.572 13.4489 116.363 13.8925 116.805 13.9859C117.782 14.2194 121.226 15.6437 123.367 16.7177C124.228 17.1613 125.042 17.5116 125.158 17.5116C125.275 17.5116 126.415 18.1186 127.671 18.8425C128.928 19.5663 130.533 20.4535 131.231 20.8038C131.929 21.154 132.651 21.5509 132.86 21.691C133.884 22.4148 137.048 24.4462 137.537 24.703C137.839 24.8664 138.933 25.6836 139.957 26.5008C140.981 27.3414 141.911 28.0185 142.004 28.0185C142.633 28.0419 149.311 34.4161 150.963 36.5408C151.544 37.3113 152.382 38.362 152.801 38.8523C153.22 39.366 153.569 39.903 153.569 40.0431C153.569 40.2066 153.871 40.7436 154.243 41.2573C155.058 42.4014 156.78 45.4834 157.431 47.0478C157.71 47.6782 158.385 49.2192 158.92 50.4333C161.131 55.3599 163.69 64.9329 164.528 71.3305C165.389 77.9382 165.389 91.6673 164.505 98.6252C164.388 99.5358 164.225 100.913 164.156 101.684C164.016 103.038 163.132 106.937 162.294 109.856C161.968 111.07 161.456 112.728 160.27 116.51C159.758 118.168 156.268 125.57 155.011 127.718C154.267 128.932 153.545 130.193 153.382 130.52C152.94 131.384 150.078 135.283 148.287 137.454C144.727 141.75 138.375 147.774 134.512 150.483C133.791 150.996 132.721 151.79 132.162 152.257C131.58 152.724 129.975 153.892 128.556 154.826C127.159 155.76 125.95 156.6 125.88 156.694C125.81 156.787 125.112 157.184 124.344 157.604C123.553 158.001 122.39 158.865 121.715 159.495C120.668 160.499 120.528 160.733 120.528 161.573C120.528 162.367 120.598 162.507 121.133 162.648C123.599 163.278 130.696 160.476 135.769 156.904C136.164 156.624 137.677 155.549 139.142 154.522C140.608 153.495 142.191 152.304 142.633 151.907C143.075 151.487 143.866 150.856 144.378 150.483C145.285 149.806 145.983 149.199 150.195 145.229C153.801 141.82 159.618 135.82 160.619 134.489C161.131 133.788 161.689 133.088 161.852 132.971C162.108 132.761 163.644 130.636 164.156 129.796C164.295 129.586 164.993 128.488 165.738 127.368C169.019 122.464 171.95 115.576 173.695 108.805C175.603 101.31 176.837 90.71 176.837 81.3471C176.837 72.6614 176.371 67.548 175.092 62.3412C174.812 61.1271 174.487 59.5861 174.417 58.9556C174.277 57.8816 171.648 49.6628 171.252 49.1492C171.159 49.0091 171.02 48.5888 170.95 48.2152C170.764 47.2579 167.273 39.833 165.808 37.288C165.156 36.1672 164.318 34.6963 163.969 34.0192C163.597 33.342 163.015 32.4314 162.666 31.9878C162.317 31.5442 161.573 30.4935 161.014 29.6763C159.874 27.9485 159.991 28.1353 157.594 25.2167C155.826 23.0686 153.196 20.3134 151.358 18.679C150.102 17.5583 145.937 14.2427 145.797 14.2427C145.727 14.2427 144.587 13.5189 143.284 12.655C140.306 10.6704 135.001 8.00863 131.464 6.74779C126.834 5.09003 122.576 3.7358 121.226 3.50231C120.528 3.38557 118.527 2.96529 116.805 2.56836C115.083 2.17143 112.617 1.72781 111.337 1.61106C109.01 1.37758 93.165 1.14409 91.2105 1.30753ZM107.126 34.5795C107.824 34.9064 108.056 35.4668 108.545 38.0585C108.987 40.3 109.895 43.7322 110.43 45.0164C110.825 46.0438 110.337 45.8336 117.852 48.3553C125.391 50.9003 128.788 52.2312 133.209 54.3559C138.049 56.6908 139.282 57.4613 139.771 58.4887C140.12 59.2358 140.12 59.3526 139.747 60.1931C139.073 61.6641 138.305 61.9676 135.303 61.9209C128.113 61.7575 95.3056 63.0417 88.4183 63.7655C84.9979 64.1157 59.2403 67.5947 48.8627 69.089C36.7401 70.8635 37.4149 70.7935 36.205 70.2564C35.1579 69.7895 35.1346 69.7895 35.4604 69.159C35.7396 68.622 38.3922 66.3105 38.7412 66.3105C38.811 66.3105 39.9744 65.5633 41.3239 64.6761C42.6967 63.7655 43.9067 63.0417 44.023 63.0417C44.1393 63.0417 45.6052 62.2478 47.2573 61.2905C48.9093 60.3332 50.3286 59.5394 50.4217 59.5394C50.538 59.5394 52.1901 58.7688 54.098 57.8115C57.8442 55.9436 65.2667 52.5347 65.5924 52.5347C65.6855 52.5347 66.081 52.0911 66.4301 51.5307C66.8024 50.9937 67.5237 49.9664 68.0821 49.2659C68.6405 48.5654 69.3153 47.5381 69.6178 47.0011C70.3158 45.7402 73.3407 41.5842 74.0387 40.9537C74.4342 40.5802 75.714 40.1832 78.925 39.4828C81.3216 38.9457 83.5088 38.5255 83.8112 38.5255C84.2533 38.5255 93.258 36.7276 94.817 36.3073C96.9344 35.7703 100.401 35.0465 101.448 34.9064C102.146 34.8364 103.147 34.6729 103.659 34.5562C105.055 34.276 106.474 34.2993 107.126 34.5795ZM80.6701 68.7621C80.9027 69.4159 80.0651 71.0269 78.0408 73.8988C76.2724 76.3972 75.2021 77.5412 73.5966 78.6153C73.1545 78.9188 73.0149 78.8955 72.3867 78.5686C70.246 77.4712 70.7579 75.183 73.8293 72.101C76.2259 69.6494 80.2512 67.7114 80.6701 68.7621ZM130.557 74.9729C131.208 75.6267 131.092 76.9342 130.184 79.666C129.742 80.9969 129.579 81.8608 129.696 82.281C129.882 83.0282 131.069 83.8221 132.046 83.8221C132.907 83.8221 134.163 84.7794 133.954 85.2697C133.744 85.8301 131.045 87.0909 129.719 87.231C128.835 87.3477 128.207 87.2543 127.159 86.8574C124.926 86.0402 124.716 86.0402 123.646 86.8107C121.203 88.5852 117.038 90.1262 114.734 90.1262C114.199 90.1262 113.129 90.4998 111.803 91.1769C110.662 91.7373 109.08 92.3677 108.312 92.5779C106.614 92.9981 102.356 93.3951 99.3543 93.3951C98.1443 93.3951 96.4225 93.5118 95.5616 93.6285C93.4442 93.9321 92.7229 93.6285 92.7461 92.4378C92.7694 91.2003 94.1422 89.3557 97.0973 86.6239C98.5631 85.2697 99.9592 84.0089 100.192 83.8221C101.867 82.4678 103.915 80.6466 104.101 80.3665C104.287 80.0629 103.938 80.0396 101.425 80.2264C99.8429 80.3198 98.0978 80.3898 97.5626 80.3898C95.7477 80.3198 94.2353 79.1523 94.2353 77.8214C94.2353 76.724 95.0962 76.3505 98.2607 76.117C99.7033 76.0002 102.053 75.6967 103.519 75.4399C109.173 74.4125 111.686 75.0196 111.686 77.3778C111.686 78.0082 110.593 79.6426 109.383 80.7867C108.894 81.2304 107.638 82.5612 106.544 83.7053C101.751 88.8654 101.704 88.9588 103.659 89.239C105.195 89.4258 110.709 89.4258 111.454 89.2156C112.012 89.0522 112.035 89.0055 111.942 87.1376C111.849 84.8961 112.175 84.0556 113.99 81.8141C116.386 78.8488 120.295 76.2337 123.553 75.4165C124.391 75.2064 128.276 74.646 129.789 74.5059C129.928 74.5059 130.301 74.716 130.557 74.9729ZM57.1927 75.2998C59.4729 75.8368 61.8463 77.2377 62.9864 78.7087C65.0573 81.4171 65.1736 84.5225 63.3587 88.235C62.6607 89.6359 62.172 90.243 60.6131 91.6206C58.519 93.4418 57.2625 94.1422 54.098 95.2863C51.3059 96.2903 49.8633 96.4071 48.7464 95.7299C48.3043 95.4498 47.7924 95.263 47.6295 95.333C47.3271 95.4498 45.3726 99.886 45.3726 100.423C45.3726 100.563 45.2329 101.007 45.0468 101.404C44.4418 102.735 42.9992 106.097 42.2546 107.871C41.1378 110.51 40.3699 111.864 39.4858 112.821C38.5318 113.872 38.206 113.919 37.4382 113.101C36.9263 112.564 36.8797 112.331 36.9495 110.743C36.9961 109.786 37.2288 108.035 37.4847 106.844C38.7179 101.077 38.7644 100.937 40.6259 96.1502C41.3239 94.3991 41.8824 92.9047 41.8824 92.8347C41.8824 92.6012 44.1859 87.9315 44.7909 86.9742C45.0933 86.4605 45.3726 85.9001 45.3726 85.7367C45.3726 85.5732 45.7914 84.8261 46.28 84.0789C46.7919 83.3317 47.2805 82.4445 47.3736 82.0943C47.5132 81.4872 47.4899 81.4872 46.28 81.4872C44.2092 81.4872 43.7205 80.5999 44.7909 78.7787C46.3731 76.0703 52.8183 74.2724 57.1927 75.2998ZM92.1644 80.2497C93.5373 81.0669 93.3511 82.281 91.4199 84.9895C90.652 86.0869 88.651 88.3984 86.9524 90.1496C83.5553 93.6519 82.6013 94.7026 82.6013 94.866C82.6013 94.9127 86.9757 95.0295 92.3273 95.1229C100.867 95.2863 102.216 95.263 103.659 94.9127C106.311 94.3057 107.056 94.8193 105.52 96.1736C103.147 98.2516 100.215 98.8587 90.2565 99.349C82.485 99.7459 81.0191 99.886 77.8314 100.633C75.7605 101.124 73.7827 101.287 73.3174 101.007C73.201 100.913 72.9684 100.47 72.852 100.026C72.3169 98.1115 73.3639 96.7339 80.3909 90.0095C84.1137 86.4371 85.3935 85.0829 85.3935 84.686C85.3935 84.3124 85.2771 84.2657 84.6489 84.3824C84.2301 84.4525 82.8805 84.5926 81.6473 84.6626C78.8086 84.8494 76.9007 84.3824 76.5284 83.4018C76.1561 82.4445 76.5284 81.6506 77.5289 81.3237C78.7156 80.9268 81.8567 80.5532 84.1137 80.5299C85.1375 80.5299 86.8593 80.3898 87.9529 80.2264C90.7451 79.7827 91.3966 79.8061 92.1644 80.2497ZM73.1778 81.7907C73.8758 82.8648 73.6897 86.297 72.8055 88.7253C72.3867 89.8694 70.3856 94.4691 69.0593 97.3644C68.8034 97.9481 68.4311 98.9287 68.2682 99.5358C67.7563 101.497 66.9187 101.777 65.4295 100.493C64.2196 99.4657 63.8939 98.3683 64.0335 95.8934C64.1265 94.2823 64.2894 93.792 65.2667 91.8073C65.8949 90.5699 67.1746 88.4218 68.1054 87.0442C69.0361 85.6666 69.8039 84.4758 69.8039 84.4058C69.8039 84.1956 71.6421 81.9308 72.1307 81.5572C72.6193 81.1603 72.7822 81.1837 73.1778 81.7907ZM118.876 97.1542C119.109 97.8547 118.946 98.9988 118.225 101.287C117.852 102.548 117.876 102.548 125.228 101.077C128.044 100.516 129.649 100.493 129.463 100.983C129.254 101.497 122.971 104.369 119.784 105.396C117.992 105.98 115.595 107.218 115.386 107.638C115.2 107.988 114.083 110.953 112.57 115.109C112.105 116.324 111.407 118.378 110.988 119.662C110.151 122.207 109.127 124.426 108.592 124.869C108.312 125.103 108.173 125.009 107.824 124.285C107.498 123.608 107.405 122.908 107.428 121.18C107.475 118.822 108.219 113.428 108.778 111.514C109.197 110.089 109.22 108.712 108.848 108.408C108.685 108.268 108.126 108.105 107.614 108.035C106.428 107.848 104.892 106.33 105.101 105.536C105.357 104.579 106.242 104.252 109.104 104.135L111.779 104.019L113.385 101.684C114.246 100.4 115.06 99.1389 115.153 98.882C115.525 98.0181 117.527 96.4304 118.225 96.4304C118.457 96.4304 118.736 96.7339 118.876 97.1542ZM83.532 102.851C83.8345 103.225 83.6949 104.065 82.6013 108.572C81.6241 112.588 81.5542 113.218 82.0429 113.405C82.2523 113.475 82.9038 113.382 83.4855 113.148C84.0672 112.938 84.6256 112.845 84.742 112.961C85.0444 113.265 83.7414 115.063 82.9271 115.46C81.2518 116.254 80.2745 117.771 80.2745 119.616C80.2745 120.62 78.925 126.247 78.4363 127.344C77.8314 128.652 76.9239 129.539 75.9932 129.702C73.9456 130.099 73.2476 129.329 73.2243 126.644C73.201 125.616 73.2709 123.935 73.3639 122.861C73.5501 121.157 73.5268 120.947 73.1778 120.947C72.8288 120.947 69.548 121.974 66.4533 123.048L65.2899 123.445L64.2661 127.274C63.7077 129.376 63.126 131.617 62.9399 132.271C62.2884 134.816 61.3344 136.263 59.7522 137.081C58.961 137.478 58.7051 137.524 58.1699 137.291C56.7971 136.73 56.6575 136.333 56.6575 133.228C56.6575 130.8 56.7506 130.146 57.309 128.465C58.2863 125.43 58.1234 124.636 56.355 124.309C54.6565 124.005 53.051 122.885 53.051 121.997C53.051 120.993 55.0055 119.803 57.3556 119.312C60.3106 118.728 60.4967 118.658 60.869 117.724C61.0552 117.258 61.5671 116.113 62.0092 115.226C62.4745 114.316 62.8235 113.475 62.8235 113.358C62.8468 113.218 63.4518 112.074 64.2196 110.79C64.9875 109.506 65.8716 107.941 66.1974 107.334C66.8489 106.097 68.338 104.392 69.3851 103.622C70.1995 103.061 70.7346 103.365 70.7346 104.369C70.7346 105.793 69.4782 110.907 68.5242 113.475C67.4539 116.277 67.3142 116.861 67.6865 117.071C67.989 117.258 71.4327 116.58 73.5501 115.903L75.3417 115.343L76.063 113.615C76.4586 112.658 76.7843 111.771 76.7843 111.63C76.7843 111.28 77.622 109.506 79.1809 106.681C80.9958 103.272 82.6711 101.801 83.532 102.851ZM103.566 106.961C103.845 107.498 103.729 109.949 103.287 113.125C103.147 114.012 103.054 116.254 103.031 118.075C103.031 121.6 102.891 122.067 101.914 121.764C101.169 121.53 99.2379 119.452 98.5166 118.145C98.1676 117.514 97.772 116.977 97.6324 116.977C97.4928 116.977 96.5854 117.724 95.6314 118.635C92.1877 121.927 91.0243 122.581 88.7906 122.581C87.441 122.581 87.1851 122.511 86.5103 121.904C85.7425 121.227 85.7425 121.203 85.7658 119.032C85.7658 117.258 85.9054 116.51 86.4405 114.993C87.5341 111.887 87.5574 111.677 86.7663 110.977C85.9286 110.206 85.9054 109.833 86.743 109.412C88.651 108.432 90.2565 108.852 91.001 110.556C91.6758 112.097 91.7922 113.592 91.3501 115.32C90.7451 117.678 91.0941 117.771 93.5605 115.903C96.0502 114.012 97.5394 112.494 99.4706 109.856C100.401 108.572 101.402 107.288 101.658 106.984C102.263 106.33 103.217 106.307 103.566 106.961Z" fill="#EE3A43"/>
<path d="M123.157 79.4558C120.412 80.9035 119.365 81.7907 118.341 83.4251C117.527 84.7794 118.248 85.0829 120.319 84.2657C123.274 83.0983 124.321 82.3511 124.74 81.0436C124.879 80.5766 125.089 80.1096 125.205 79.9695C125.321 79.8528 125.414 79.5726 125.414 79.3391C125.414 78.7554 124.391 78.8021 123.157 79.4558Z" fill="#EE3A43"/>
<path d="M51.7712 80.8801C51.7247 81.0202 51.6316 81.6506 51.5386 82.2577C51.4688 82.8648 50.8405 85.1296 50.1657 87.2777C48.3974 92.8814 48.1647 93.7219 48.1647 94.3991C48.1647 95.1462 48.188 95.1462 49.7702 94.5625C55.052 92.5312 59.3333 88.5619 59.3333 85.7133C59.3333 84.686 58.2165 82.6546 57.309 82.0009C56.0525 81.0903 51.9574 80.2731 51.7712 80.8801Z" fill="#EE3A43"/>
<path d="M3.28078 99.8393C2.88522 100.166 2.28026 100.913 1.9545 101.45C0.604961 103.785 1.18666 110.206 3.09463 114.059C4.11843 116.137 6.91058 117.911 9.16757 117.911C10.2844 117.911 10.4938 117.841 11.029 117.187C11.4478 116.697 11.634 116.207 11.634 115.623C11.634 113.732 10.4008 103.482 10.0518 102.524C9.51659 101.053 8.46954 100.049 7.00365 99.6058C5.14222 99.0455 4.11843 99.1155 3.28078 99.8393Z" fill="#EE3A43"/>
<path d="M150.311 148.498C150.311 148.872 150.474 148.965 151.009 148.965H151.707V150.6C151.707 152.071 151.754 152.234 152.173 152.234C152.591 152.234 152.638 152.071 152.638 150.6C152.638 149.012 152.661 148.965 153.22 148.965C153.755 148.965 153.778 149.035 153.848 150.529C153.918 151.977 153.964 152.117 154.453 152.187C154.895 152.257 154.965 152.164 154.988 151.487L155.011 150.716L155.337 151.463C155.546 151.93 155.826 152.234 156.105 152.234C156.384 152.234 156.617 151.977 156.78 151.463L157.012 150.716L157.036 151.463C157.059 152.071 157.152 152.234 157.524 152.234C157.966 152.234 157.99 152.071 157.99 150.109C157.99 148.078 157.966 148.008 157.478 148.078C157.105 148.125 156.873 148.451 156.593 149.245C156.384 149.852 156.151 150.413 156.105 150.483C156.035 150.553 155.802 150.016 155.57 149.315L155.174 148.031H152.731C150.474 148.031 150.311 148.055 150.311 148.498Z" fill="#EE3A43"/>
</svg>
