<svg width="32" height="31" viewBox="0 0 32 31" fill="none" xmlns="http://www.w3.org/2000/svg">
<path d="M16.3974 0.235063C15.9749 0.272841 15.222 0.390371 14.7953 0.482717C14.5485 0.541483 14.1595 0.617038 13.9378 0.650618C13.3103 0.751359 12.7582 0.88568 11.817 1.15852C10.9804 1.40617 10.9176 1.42716 10.332 1.65803C10.0225 1.77975 9.71294 1.89309 9.64183 1.90988C9.48287 1.94346 7.78876 2.78296 7.50013 2.96766C7.37882 3.04321 7.23242 3.12716 7.17385 3.14815C7.11529 3.16914 6.88104 3.32025 6.65516 3.47975C6.4251 3.63926 6.19503 3.79457 6.14065 3.82395C5.96915 3.9163 5.23294 4.49556 4.8732 4.82716C4.57202 5.1042 3.95712 5.73803 3.73124 6.00247C3.62667 6.1284 3.47189 6.30469 3.39242 6.38864C3.31294 6.47679 3.2 6.61951 3.14144 6.71185C3.08287 6.8 2.9532 6.9763 2.85699 7.10222C2.76497 7.22815 2.5851 7.50099 2.46379 7.70667C2.34248 7.91235 2.22118 8.10963 2.19608 8.14321C2.09568 8.26914 1.92418 8.62173 1.49751 9.57037C1.43895 9.6963 1.31765 10.0447 1.22144 10.3469C0.732025 11.9252 0.71111 12.0469 0.681829 13.6294C0.648365 15.556 0.723659 16.0849 1.09595 16.4627C1.26745 16.639 1.31765 16.6642 1.45987 16.6642C1.61882 16.6642 1.63555 16.6516 1.7234 16.4837C1.79033 16.3536 1.81542 16.2109 1.82797 15.9506C1.91163 14.0827 1.97856 13.5664 2.28392 12.3827C2.36758 12.0721 2.45961 11.7111 2.48889 11.5852C2.54327 11.3375 2.71895 10.8674 3.02013 10.1538C3.42588 9.19259 4.15372 8.04667 4.90248 7.19457C5.43372 6.58593 6.20758 5.84296 6.5464 5.6121C6.63843 5.55333 6.81412 5.41901 6.93961 5.31408C7.06091 5.21333 7.2115 5.1042 7.27425 5.07482C7.33281 5.04124 7.50431 4.9405 7.6549 4.84395C7.80549 4.75161 7.98536 4.63827 8.05229 4.5921C8.29908 4.43679 9.60418 3.81136 9.78823 3.75679C9.89281 3.72741 10.1354 3.65185 10.332 3.58889C10.972 3.38741 11.4238 3.27408 11.5995 3.27408C11.7501 3.27408 11.7626 3.28247 11.7124 3.33284C11.6246 3.42099 11.0724 3.71901 10.8884 3.78198C10.8005 3.81136 10.5244 3.93309 10.2693 4.05062C10.0183 4.17235 9.62091 4.34864 9.39085 4.44938C9.16078 4.54593 8.91817 4.65926 8.84706 4.70124C8.78013 4.74321 8.53333 4.87333 8.30327 4.99506C8.0732 5.11679 7.75111 5.31827 7.58379 5.44C7.41647 5.56593 7.26588 5.66667 7.24497 5.66667C7.15712 5.66667 5.89804 6.87136 5.39608 7.43383C5.24967 7.59753 5.05307 7.84099 4.96104 7.97111C4.8732 8.10124 4.77699 8.22296 4.75189 8.24815C4.68915 8.30272 4.51765 8.53778 4.4047 8.73087C4.35869 8.81062 4.19555 9.08346 4.04078 9.33531C3.89019 9.58716 3.7647 9.82642 3.7647 9.8642C3.7647 9.89778 3.73961 9.96494 3.70614 10.0111C3.58483 10.1874 3.26274 11.0017 3.11216 11.5012C2.67294 12.9872 2.61438 13.4573 2.61856 15.6148C2.62274 17.7598 2.71477 19.2247 2.89046 19.9173C3.01595 20.4126 3.28366 21.1556 3.50954 21.6215C3.65176 21.9153 3.7647 22.1714 3.7647 22.1923C3.7647 22.2553 4.22065 22.9983 4.42562 23.2753C4.83555 23.821 6.7932 25.6931 7.06928 25.8064C7.10274 25.819 7.31608 25.9701 7.54196 26.138C7.76784 26.3059 7.96863 26.4444 7.98536 26.4444C8.00209 26.4444 8.17359 26.5494 8.37019 26.6753C8.81359 26.9733 10.0643 27.5946 10.3948 27.6869C11.3234 27.9472 12.1893 28.1486 12.9422 28.2788C13.0593 28.2956 13.1681 28.3417 13.1932 28.3837C13.2769 28.518 13.1597 28.5642 12.6829 28.5768C12.3231 28.5894 12.1349 28.5684 11.7124 28.4802C11.4238 28.4173 11.1142 28.3585 11.0222 28.3459C10.7294 28.3081 9.36157 27.8758 9.12732 27.7499C9.07712 27.7247 9.01019 27.7037 8.96836 27.7037C8.93072 27.7037 8.61699 27.561 8.2698 27.3889C7.9268 27.2168 7.63399 27.0741 7.61307 27.0741C7.57961 27.0741 6.80993 26.5704 6.77647 26.5284C6.76392 26.5116 6.70536 26.4738 6.64261 26.4402C6.16575 26.1926 4.26248 24.3121 3.80653 23.6363C3.63503 23.3844 2.91137 22.5281 2.74405 22.3812C2.36758 22.0496 2.07477 22.3519 2.15425 22.9941C2.17934 23.2081 2.26301 23.4642 2.50144 24.0812C2.64784 24.459 3.22091 25.3447 3.59738 25.7728C3.96549 26.1968 4.63477 26.86 5.0447 27.2126C5.50902 27.6114 6.3247 28.2074 6.5966 28.3459C6.70536 28.4005 7.00653 28.5516 7.2617 28.6817C7.51686 28.8119 7.78039 28.9294 7.84732 28.9462C7.91425 28.963 8.20287 29.0679 8.4915 29.1728C9.30719 29.4835 9.55817 29.5422 10.9595 29.7815C12.4068 30.0249 13.8332 30.0291 15.3725 29.7983C16.6818 29.6052 17.4557 29.4331 18.3174 29.1477C18.6269 29.0469 18.8988 28.963 18.9197 28.963C18.9741 28.963 19.702 28.6649 20.0952 28.4844C20.275 28.4005 20.4382 28.3333 20.4591 28.3333C20.48 28.3333 20.7393 28.2074 21.0322 28.0521C21.325 27.901 21.622 27.7457 21.6889 27.7121C21.8311 27.6407 22.538 27.1664 22.6217 27.0867C22.651 27.0573 22.697 27.0321 22.7179 27.0321C22.7765 27.0321 23.0735 26.8222 23.2575 26.6585C23.337 26.583 23.4708 26.478 23.5503 26.4235C23.7135 26.3143 24.9433 25.0928 25.3281 24.6563C25.4661 24.501 25.6418 24.2827 25.7129 24.1694C25.7882 24.056 25.9137 23.884 25.989 23.7874C26.1773 23.5565 26.8298 22.5449 27.0013 22.2259C27.0766 22.0874 27.2314 21.802 27.3443 21.5963C27.4573 21.3864 27.5786 21.143 27.6078 21.0506C27.6371 20.9583 27.6915 20.824 27.7333 20.7568C27.8421 20.5679 28.1893 19.6822 28.2186 19.5185C28.2311 19.4388 28.2897 19.2163 28.3482 19.0274C28.5197 18.4356 28.6912 17.5205 28.7163 17.0294C28.7289 16.7691 28.7498 16.4123 28.7582 16.2319C28.7833 15.7911 28.708 13.9778 28.6327 13.1802C28.5532 12.3995 28.4361 11.6104 28.3273 11.1235C28.2813 10.9262 28.2311 10.6869 28.2186 10.5862C28.1558 10.1119 27.5869 8.6637 27.2941 8.23136C27.223 8.12642 27.1017 7.92914 27.0306 7.79482C26.8925 7.53877 26.6374 7.15259 26.4701 6.94272C26.4199 6.87556 26.0727 6.51877 25.7046 6.14519C25.052 5.49457 24.0397 4.67185 23.5461 4.39482C23.4458 4.33605 23.2617 4.22272 23.1404 4.13877C22.7137 3.85333 21.5174 3.27827 20.9903 3.11037C20.3001 2.8879 20.2499 2.87531 19.4384 2.74938C18.5474 2.61087 18.2797 2.53111 18.1961 2.38C18.1124 2.23309 18.1752 2.13235 18.3843 2.07778C18.6102 2.02321 19.5807 2.15333 20.2834 2.33383C20.5971 2.41778 20.9192 2.49753 20.9987 2.51432C21.1744 2.5563 21.7935 2.81235 22.1783 3.00543C22.3331 3.08519 22.4795 3.14815 22.5004 3.14815C22.5213 3.14815 22.7263 3.25729 22.9522 3.38741C23.178 3.51753 23.4667 3.67704 23.5922 3.74C23.7176 3.80296 23.8473 3.87432 23.885 3.89951C24.069 4.02963 24.6379 4.39482 24.7258 4.44099C24.7801 4.47037 24.9767 4.61729 25.1608 4.7642C25.3448 4.91531 25.5122 5.03704 25.5289 5.03704C25.6418 5.04124 26.8424 6.18716 27.1393 6.56914C27.2439 6.70766 27.3945 6.89654 27.4698 6.98469C27.5451 7.07704 27.6078 7.17358 27.6078 7.19877C27.6078 7.22815 27.6622 7.32469 27.7291 7.41704C27.8756 7.62272 28.1851 8.17679 28.3022 8.45803C28.3524 8.57136 28.4737 8.8484 28.5699 9.06667C28.9673 9.95235 29.4274 11.6733 29.578 12.8235C29.7328 14.0114 29.7328 16.4795 29.5739 17.7304C29.5529 17.8941 29.5237 18.1417 29.5111 18.2802C29.486 18.5237 29.3271 19.2247 29.1765 19.7494C29.1179 19.9677 29.0259 20.2657 28.8125 20.9457C28.7205 21.2437 28.0931 22.5743 27.8672 22.9605C27.7333 23.1788 27.6037 23.4054 27.5744 23.4642C27.4949 23.6195 26.9804 24.3205 26.6583 24.7109C26.0183 25.4832 24.8763 26.5662 24.182 27.0531C24.0523 27.1454 23.8599 27.2881 23.7595 27.3721C23.6549 27.456 23.3663 27.6659 23.1111 27.8338C22.8601 28.0017 22.6426 28.1528 22.6301 28.1696C22.6175 28.1864 22.492 28.2578 22.354 28.3333C22.2118 28.4047 22.0026 28.56 21.8813 28.6733C21.6931 28.8538 21.668 28.8958 21.668 29.0469C21.668 29.1896 21.6805 29.2148 21.7767 29.24C22.2201 29.3533 23.4959 28.8496 24.4078 28.2074C24.479 28.157 24.7508 27.964 25.0144 27.7793C25.2779 27.5946 25.5624 27.3805 25.6418 27.3091C25.7213 27.2336 25.8635 27.1202 25.9556 27.0531C26.1187 26.9314 26.2442 26.8222 27.0013 26.1086C27.6497 25.4958 28.6954 24.417 28.8753 24.1778C28.9673 24.0519 29.0677 23.9259 29.097 23.9049C29.143 23.8672 29.4191 23.4852 29.5111 23.3341C29.5362 23.2963 29.6617 23.099 29.7956 22.8975C30.3854 22.016 30.9124 20.7778 31.2261 19.5605C31.5691 18.2131 31.7908 16.3074 31.7908 14.6242C31.7908 13.0627 31.7072 12.1435 31.4771 11.2074C31.4269 10.9891 31.3684 10.7121 31.3558 10.5988C31.3307 10.4057 30.858 8.92815 30.7869 8.8358C30.7702 8.81062 30.7451 8.73506 30.7325 8.6679C30.6991 8.4958 30.0716 7.16099 29.8081 6.70346C29.691 6.50198 29.5404 6.23753 29.4776 6.1158C29.4107 5.99408 29.3061 5.83037 29.2434 5.75062C29.1807 5.67087 29.0468 5.48198 28.9464 5.33506C28.7414 5.02445 28.7624 5.05803 28.3315 4.53333C28.0136 4.14716 27.5409 3.65185 27.2105 3.35803C26.9846 3.15654 26.2358 2.56049 26.2107 2.56049C26.1982 2.56049 25.9932 2.43037 25.759 2.27506C25.2235 1.91827 24.2698 1.43975 23.634 1.21309C22.8016 0.915063 22.0361 0.671606 21.7935 0.629631C21.668 0.608643 21.3082 0.533088 20.9987 0.46173C20.6891 0.390371 20.2458 0.310618 20.0157 0.289631C19.5974 0.247655 16.7488 0.20568 16.3974 0.235063ZM19.2586 6.21654C19.3841 6.27531 19.4259 6.37605 19.5137 6.84198C19.5932 7.24494 19.7563 7.86198 19.8525 8.09284C19.9237 8.27753 19.8358 8.23975 21.1869 8.69309C22.5422 9.15062 23.1529 9.38988 23.9477 9.77185C24.8178 10.1916 25.0395 10.3301 25.1273 10.5148C25.1901 10.6491 25.1901 10.6701 25.1231 10.8212C25.0018 11.0857 24.8638 11.1402 24.3242 11.1319C23.0316 11.1025 17.1336 11.3333 15.8954 11.4635C15.2805 11.5264 10.6499 12.1519 8.78431 12.4205C6.60497 12.7395 6.72627 12.7269 6.50876 12.6304C6.32052 12.5464 6.31634 12.5464 6.3749 12.4331C6.4251 12.3365 6.90196 11.921 6.9647 11.921C6.97725 11.921 7.1864 11.7867 7.42902 11.6272C7.67582 11.4635 7.89333 11.3333 7.91425 11.3333C7.93516 11.3333 8.19869 11.1906 8.49568 11.0185C8.79268 10.8464 9.04784 10.7037 9.06457 10.7037C9.08549 10.7037 9.38248 10.5652 9.72549 10.3931C10.399 10.0573 11.7333 9.44445 11.7919 9.44445C11.8086 9.44445 11.8797 9.36469 11.9425 9.26395C12.0094 9.16741 12.1391 8.98272 12.2395 8.85679C12.3399 8.73087 12.4612 8.54617 12.5156 8.44963C12.641 8.22296 13.1848 7.4758 13.3103 7.36247C13.3814 7.29531 13.6115 7.22395 14.1888 7.09803C14.6196 7.00148 15.0128 6.92593 15.0672 6.92593C15.1467 6.92593 16.7655 6.60272 17.0457 6.52716C17.4264 6.43062 18.0497 6.3005 18.2379 6.27531C18.3634 6.26272 18.5433 6.23333 18.6353 6.21235C18.8863 6.16198 19.1414 6.16617 19.2586 6.21654ZM14.5025 12.3617C14.5443 12.4793 14.3937 12.7689 14.0298 13.2852C13.7119 13.7343 13.5195 13.94 13.2308 14.1331C13.1514 14.1877 13.1263 14.1835 13.0133 14.1247C12.6285 13.9274 12.7205 13.516 13.2727 12.962C13.7035 12.5212 14.4272 12.1728 14.5025 12.3617ZM23.4708 13.4783C23.588 13.5958 23.5671 13.8309 23.4039 14.322C23.3244 14.5612 23.2952 14.7165 23.3161 14.7921C23.3495 14.9264 23.5629 15.0691 23.7386 15.0691C23.8933 15.0691 24.1192 15.2412 24.0816 15.3294C24.0439 15.4301 23.5587 15.6568 23.3203 15.682C23.1613 15.703 23.0484 15.6862 22.8601 15.6148C22.4586 15.4679 22.4209 15.4679 22.2285 15.6064C21.7893 15.9254 21.0405 16.2025 20.6264 16.2025C20.5302 16.2025 20.3378 16.2696 20.0993 16.3914C19.8944 16.4921 19.6099 16.6054 19.4719 16.6432C19.1665 16.7188 18.401 16.7901 17.8614 16.7901C17.6439 16.7901 17.3344 16.8111 17.1796 16.8321C16.799 16.8867 16.6693 16.8321 16.6735 16.618C16.6776 16.3956 16.9244 16.064 17.4557 15.5728C17.7192 15.3294 17.9702 15.1027 18.012 15.0691C18.3132 14.8257 18.6813 14.4983 18.7148 14.4479C18.7482 14.3933 18.6855 14.3891 18.2337 14.4227C17.9493 14.4395 17.6356 14.4521 17.5393 14.4521C17.2131 14.4395 16.9412 14.2296 16.9412 13.9904C16.9412 13.7931 17.0959 13.7259 17.6648 13.684C17.9242 13.663 18.3467 13.6084 18.6102 13.5622C19.6267 13.3775 20.0784 13.4867 20.0784 13.9106C20.0784 14.024 19.8818 14.3178 19.6643 14.5235C19.5765 14.6032 19.3506 14.8425 19.154 15.0481C18.2923 15.9758 18.2839 15.9926 18.6353 16.043C18.9114 16.0765 19.9027 16.0765 20.0366 16.0388C20.137 16.0094 20.1412 16.001 20.1244 15.6652C20.1077 15.2622 20.1663 15.1111 20.4925 14.7081C20.9234 14.1751 21.6261 13.7049 22.2118 13.558C22.3624 13.5202 23.0609 13.4195 23.3328 13.3943C23.3579 13.3943 23.4248 13.4321 23.4708 13.4783ZM10.2818 13.537C10.6918 13.6336 11.1184 13.8854 11.3234 14.1499C11.6957 14.6368 11.7166 15.1951 11.3903 15.8625C11.2648 16.1143 11.177 16.2235 10.8967 16.4711C10.5203 16.7985 10.2944 16.9244 9.72549 17.1301C9.22353 17.3106 8.96418 17.3316 8.7634 17.2099C8.68392 17.1595 8.59189 17.1259 8.56261 17.1385C8.50823 17.1595 8.15686 17.957 8.15686 18.0536C8.15686 18.0788 8.13176 18.1585 8.0983 18.2299C7.98954 18.4691 7.73019 19.0736 7.59634 19.3926C7.39555 19.8669 7.25751 20.1104 7.09856 20.2825C6.92706 20.4714 6.8685 20.4798 6.73046 20.3328C6.63843 20.2363 6.63006 20.1943 6.64261 19.9089C6.65098 19.7368 6.69281 19.422 6.73882 19.2079C6.96052 18.1711 6.96889 18.1459 7.30353 17.2854C7.42902 16.9706 7.52941 16.702 7.52941 16.6894C7.52941 16.6474 7.94353 15.8079 8.05229 15.6358C8.10667 15.5435 8.15686 15.4427 8.15686 15.4133C8.15686 15.384 8.23216 15.2496 8.32 15.1153C8.41202 14.981 8.49987 14.8215 8.5166 14.7585C8.5417 14.6494 8.53751 14.6494 8.32 14.6494C7.94771 14.6494 7.85987 14.4899 8.05229 14.1625C8.33673 13.6756 9.49542 13.3523 10.2818 13.537ZM16.5689 14.4269C16.8157 14.5738 16.7822 14.7921 16.435 15.279C16.297 15.4763 15.9373 15.8919 15.6319 16.2067C15.0212 16.8363 14.8497 17.0252 14.8497 17.0546C14.8497 17.063 15.6361 17.084 16.5982 17.1007C18.1333 17.1301 18.3759 17.1259 18.6353 17.063C19.1122 16.9538 19.246 17.0462 18.9699 17.2896C18.5433 17.6632 18.0162 17.7723 16.2259 17.8605C14.8288 17.9319 14.5652 17.957 13.9922 18.0914C13.6199 18.1795 13.2643 18.2089 13.1807 18.1585C13.1597 18.1417 13.1179 18.062 13.097 17.9822C13.0008 17.638 13.189 17.3904 14.4523 16.1815C15.1216 15.5393 15.3516 15.2958 15.3516 15.2244C15.3516 15.1573 15.3307 15.1489 15.2178 15.1699C15.1425 15.1825 14.8999 15.2077 14.6782 15.2202C14.1678 15.2538 13.8248 15.1699 13.7579 14.9936C13.691 14.8215 13.7579 14.6788 13.9378 14.62C14.1511 14.5486 14.7158 14.4815 15.1216 14.4773C15.3056 14.4773 15.6152 14.4521 15.8118 14.4227C16.3137 14.343 16.4308 14.3472 16.5689 14.4269ZM13.1556 14.704C13.281 14.897 13.2476 15.5141 13.0886 15.9506C13.0133 16.1563 12.6536 16.9832 12.4152 17.5037C12.3691 17.6086 12.3022 17.7849 12.2729 17.8941C12.1809 18.2467 12.0303 18.297 11.7626 18.0662C11.5451 17.8815 11.4865 17.6842 11.5116 17.2393C11.5284 16.9496 11.5576 16.8615 11.7333 16.5047C11.8463 16.2822 12.0763 15.896 12.2437 15.6484C12.411 15.4007 12.549 15.1867 12.549 15.1741C12.549 15.1363 12.8795 14.7291 12.9673 14.662C13.0552 14.5906 13.0844 14.5948 13.1556 14.704ZM21.371 17.4659C21.4128 17.5919 21.3835 17.7975 21.2539 18.2089C21.1869 18.4356 21.1911 18.4356 22.5129 18.1711C23.0191 18.0704 23.3077 18.0662 23.2742 18.1543C23.2366 18.2467 22.1072 18.763 21.5341 18.9477C21.212 19.0526 20.7812 19.2751 20.7435 19.3506C20.7101 19.4136 20.5093 19.9467 20.2374 20.6938C20.1537 20.9121 20.0282 21.2815 19.9529 21.5123C19.8024 21.9699 19.6183 22.3686 19.5221 22.4484C19.4719 22.4904 19.4468 22.4736 19.3841 22.3435C19.3255 22.2217 19.3088 22.0958 19.3129 21.7852C19.3213 21.3612 19.4552 20.3916 19.5556 20.0474C19.6308 19.7914 19.635 19.5437 19.5681 19.4891C19.5388 19.464 19.4384 19.4346 19.3464 19.422C19.1331 19.3884 18.857 19.1156 18.8946 18.9728C18.9407 18.8007 19.0996 18.742 19.6141 18.721L20.0952 18.7L20.3838 18.2802C20.5386 18.0494 20.685 17.8227 20.7017 17.7765C20.7686 17.6212 21.1284 17.3358 21.2539 17.3358C21.2957 17.3358 21.3459 17.3904 21.371 17.4659ZM15.017 18.4901C15.0714 18.5573 15.0463 18.7084 14.8497 19.5185C14.674 20.2405 14.6614 20.3538 14.7493 20.3874C14.7869 20.4 14.9041 20.3832 15.0086 20.3412C15.1132 20.3035 15.2136 20.2867 15.2345 20.3077C15.2889 20.3622 15.0546 20.6854 14.9082 20.7568C14.6071 20.8995 14.4314 21.1723 14.4314 21.504C14.4314 21.6844 14.1888 22.696 14.1009 22.8933C13.9922 23.1284 13.829 23.2879 13.6617 23.3173C13.2936 23.3886 13.1681 23.2501 13.1639 22.7674C13.1597 22.5827 13.1723 22.2805 13.189 22.0874C13.2225 21.781 13.2183 21.7432 13.1556 21.7432C13.0928 21.7432 12.503 21.9279 11.9467 22.121L11.7375 22.1923L11.5535 22.8807C11.4531 23.2585 11.3485 23.6615 11.315 23.779C11.1979 24.2365 11.0264 24.4968 10.742 24.6437C10.5997 24.7151 10.5537 24.7235 10.4575 24.6815C10.2107 24.5807 10.1856 24.5094 10.1856 23.9511C10.1856 23.5146 10.2024 23.397 10.3027 23.0948C10.4784 22.5491 10.4491 22.4064 10.1312 22.3477C9.82588 22.2931 9.53725 22.0916 9.53725 21.9321C9.53725 21.7516 9.88863 21.5375 10.3111 21.4494C10.8424 21.3444 10.8758 21.3319 10.9427 21.164C10.9762 21.08 11.0682 20.8743 11.1477 20.7148C11.2314 20.5511 11.2941 20.4 11.2941 20.379C11.2983 20.3538 11.4071 20.1481 11.5451 19.9173C11.6831 19.6864 11.8421 19.4052 11.9007 19.296C12.0178 19.0736 12.2855 18.7672 12.4737 18.6286C12.6201 18.5279 12.7163 18.5825 12.7163 18.763C12.7163 19.019 12.4905 19.9383 12.319 20.4C12.1265 20.9037 12.1014 21.0086 12.1684 21.0464C12.2227 21.08 12.8418 20.9583 13.2225 20.8365L13.5446 20.7358L13.6742 20.4252C13.7454 20.2531 13.8039 20.0936 13.8039 20.0684C13.8039 20.0054 13.9545 19.6864 14.2348 19.1785C14.561 18.5657 14.8622 18.3012 15.017 18.4901ZM18.6186 19.2289C18.6688 19.3254 18.6478 19.7662 18.5684 20.337C18.5433 20.4965 18.5265 20.8995 18.5224 21.2269C18.5224 21.8607 18.4973 21.9447 18.3216 21.8901C18.1877 21.8481 17.8405 21.4746 17.7108 21.2395C17.6481 21.1262 17.577 21.0296 17.5519 21.0296C17.5268 21.0296 17.3637 21.164 17.1922 21.3277C16.5731 21.9195 16.3639 22.037 15.9624 22.037C15.7197 22.037 15.6737 22.0244 15.5524 21.9153C15.4144 21.7936 15.4144 21.7894 15.4186 21.399C15.4186 21.08 15.4437 20.9457 15.5399 20.6728C15.7365 20.1146 15.7407 20.0768 15.5984 19.9509C15.4478 19.8123 15.4437 19.7452 15.5942 19.6696C15.9373 19.4933 16.2259 19.5689 16.3597 19.8753C16.481 20.1523 16.502 20.421 16.4225 20.7316C16.3137 21.1556 16.3765 21.1723 16.8199 20.8365C17.2674 20.4965 17.5352 20.2237 17.8824 19.7494C18.0497 19.5185 18.2295 19.2877 18.2756 19.2331C18.3843 19.1156 18.5558 19.1114 18.6186 19.2289Z" fill="#EE3A43"/>
<path d="M22.1406 14.2842C21.647 14.5444 21.4588 14.704 21.2748 14.9978C21.1283 15.2412 21.258 15.2958 21.6303 15.1489C22.1615 14.939 22.3498 14.8047 22.4251 14.5696C22.4502 14.4857 22.4878 14.4017 22.5087 14.3765C22.5297 14.3556 22.5464 14.3052 22.5464 14.2632C22.5464 14.1583 22.3623 14.1667 22.1406 14.2842Z" fill="#EE3A43"/>
<path d="M9.30718 14.5402C9.29881 14.5654 9.28208 14.6788 9.26535 14.7879C9.2528 14.897 9.13986 15.3042 9.01855 15.6904C8.70064 16.6978 8.65881 16.8489 8.65881 16.9706C8.65881 17.1049 8.663 17.1049 8.94744 17C9.89698 16.6348 10.6667 15.9212 10.6667 15.4091C10.6667 15.2244 10.4659 14.8593 10.3027 14.7417C10.0769 14.578 9.34064 14.4311 9.30718 14.5402Z" fill="#EE3A43"/>
<path d="M0.589799 17.9486C0.518688 18.0074 0.40993 18.1417 0.351368 18.2383C0.108753 18.658 0.213328 19.8123 0.556335 20.5049C0.740387 20.8785 1.24235 21.1975 1.6481 21.1975C1.84888 21.1975 1.88653 21.1849 1.98274 21.0674C2.05803 20.9793 2.0915 20.8911 2.0915 20.7862C2.0915 20.4462 1.8698 18.6035 1.80705 18.4314C1.71084 18.1669 1.52261 17.9864 1.25908 17.9067C0.924439 17.8059 0.740387 17.8185 0.589799 17.9486Z" fill="#EE3A43"/>
<path d="M27.0222 26.6963C27.0222 26.7635 27.0515 26.7803 27.1477 26.7803H27.2732V27.0741C27.2732 27.3385 27.2816 27.3679 27.3569 27.3679C27.4322 27.3679 27.4405 27.3385 27.4405 27.0741C27.4405 26.7886 27.4447 26.7803 27.5451 26.7803C27.6413 26.7803 27.6455 26.7928 27.658 27.0615C27.6706 27.3217 27.6789 27.3469 27.7668 27.3595C27.8463 27.3721 27.8588 27.3553 27.863 27.2336L27.8672 27.0951L27.9257 27.2294C27.9634 27.3133 28.0136 27.3679 28.0638 27.3679C28.114 27.3679 28.1558 27.3217 28.1851 27.2294L28.2269 27.0951L28.2311 27.2294C28.2353 27.3385 28.252 27.3679 28.3189 27.3679C28.3984 27.3679 28.4026 27.3385 28.4026 26.9859C28.4026 26.6207 28.3984 26.6082 28.3106 26.6207C28.2437 26.6291 28.2018 26.6879 28.1516 26.8306C28.114 26.9398 28.0722 27.0405 28.0638 27.0531C28.0512 27.0657 28.0094 26.9691 27.9676 26.8432L27.8965 26.6123H27.4572C27.0515 26.6123 27.0222 26.6165 27.0222 26.6963Z" fill="#EE3A43"/>
</svg>
