<svg width="391" height="471" viewBox="0 0 391 471" fill="none" xmlns="http://www.w3.org/2000/svg">
<ellipse cx="129.5" cy="465" rx="5.5" ry="6" fill="#D9D9D9" fill-opacity="0.1"/>
<ellipse cx="385.5" cy="129" rx="5.5" ry="6" fill="#D9D9D9" fill-opacity="0.1"/>
<path fill-rule="evenodd" clip-rule="evenodd" d="M220.433 220C243.65 196.673 258 164.512 258 129C258 57.7553 200.245 0 129 0C57.7553 0 0 57.7553 0 129C0 164.008 13.9448 195.758 36.5828 219L36.5 219C36.5 219 116.5 314 124 314C131.5 314 220.5 220 220.5 220L220.433 220Z" fill="#8E4F1A"/>
<path fill-rule="evenodd" clip-rule="evenodd" d="M86.199 80.5811C67.6485 82.8296 50.248 87.8262 34.5976 97.0198C23.9473 103.965 14.9471 114.908 15.0471 128.598C14.2971 142.289 22.5973 153.731 33.3476 160.876C70.3985 182.461 118.2 183.061 162.701 179.114L167.351 178.714C167.351 178.714 235.503 173.717 241.503 135.843C244.003 120.604 236.853 107.413 224.953 99.2683C216.902 93.872 210.752 91.4237 210.752 91.4237C173.801 77.1835 131.7 75.8843 90.9491 80.1314L86.199 80.5811Z" fill="white"/>
<path d="M86.199 80.5811C67.6485 82.8296 50.248 87.8262 34.5976 97.0198C23.9473 103.965 14.9471 114.908 15.0471 128.598C14.2971 142.289 22.5973 153.731 33.3476 160.876C70.3985 182.461 118.2 183.061 162.701 179.114L167.351 178.714C167.351 178.714 235.503 173.717 241.503 135.843C244.003 120.604 236.853 107.413 224.953 99.2683C216.902 93.872 210.752 91.4237 210.752 91.4237C173.801 77.1835 131.7 75.8843 90.9491 80.1314L86.199 80.5811Z" stroke="#49210B" stroke-width="3.9858"/>
<path fill-rule="evenodd" clip-rule="evenodd" d="M199.065 116.674L211.32 100.809H188.154C186.759 101.907 187.258 103.703 187.557 105.599C173.906 96.2694 152.484 90.2327 128.421 90.2327C116.415 90.2327 105.056 91.7294 95.0426 94.4235L93 85.8424C131.361 82.1506 170.917 83.2981 205.641 95.8703C205.641 95.8703 211.42 98.0654 218.992 102.855C230.152 110.039 236.877 121.663 234.536 135.184C228.857 168.61 164.789 173 164.789 173L162.747 164.668C186.71 158.083 203.1 144.912 203.1 129.646C203.15 125.056 201.755 120.715 199.065 116.674Z" fill="#8E4F1A"/>
<path fill-rule="evenodd" clip-rule="evenodd" d="M95.0313 141.058H80.1324C77.1727 146.119 68.9959 150.471 72.5074 156.949H55C69.5979 141.362 83.0921 123.8 96.1349 107.049C97.6398 104.67 93.3257 104.518 95.5831 103H116L113.191 129.367C110.231 130.784 106.87 132.91 105.365 136.25C104.663 138.275 104.312 141.412 105.716 143.336C106.87 145.461 109.228 146.524 111.335 147.232C110.883 150.775 111.686 154.318 113.793 157H87.5066C88.56 154.014 93.3257 153.812 93.9276 150.067L95.0313 141.058Z" fill="#49210B"/>
<path fill-rule="evenodd" clip-rule="evenodd" d="M89 132C91.1734 128.493 94.4104 124.699 97 121L96.0289 132H89Z" fill="white"/>
<path fill-rule="evenodd" clip-rule="evenodd" d="M162.893 159C158.653 158.305 153.252 155.277 152.444 151.455C151.535 147.682 154.059 137.556 154.917 130.606L133.263 158.404C129.023 158.057 124.076 154.83 122.814 151.802C121.552 148.774 122.057 147.931 122.36 145.995C125.994 144.555 133.717 140.683 130.436 133.535C136.998 131.649 133.313 124.898 130.688 125.841C132.455 124.65 131.294 120.182 126.701 119.934C126.802 119.338 128.72 112.538 128.669 110.304C128.568 107.574 126.297 105.986 127.609 104H146.235C144.014 115.02 141.894 126.04 139.774 137.159C146.336 129.862 152.495 120.579 158.35 112.141C160.52 108.567 158.956 106.085 158.35 104H177.884C171.171 113.63 172.231 126.486 169.404 137.606C176.723 129.614 183.942 119.884 190.251 110.751C192.018 108.666 189.343 105.489 191.21 104H206L162.893 159Z" fill="#49210B"/>
<path fill-rule="evenodd" clip-rule="evenodd" d="M132.334 128.57C130.535 125.321 125.635 129.07 126.985 130.12C127.585 130.52 127.685 130.42 128.185 130.07C128.885 129.57 129.135 128.57 129.135 128.57C131.484 127.57 132.484 129.57 129.985 130.92C128.585 131.67 127.335 131.57 126.185 131.47C122.286 131.02 120.486 131.77 117.986 133.669C116.587 134.869 115.387 136.919 116.387 138.319C117.387 139.668 119.536 139.319 121.036 139.069C122.836 138.269 123.536 136.719 122.736 135.869C121.986 135.019 118.986 135.069 117.487 135.969C117.487 134.519 118.786 133.719 120.236 133.319C122.036 132.969 124.935 132.87 126.085 135.019C126.785 137.519 124.335 139.618 122.786 140.468C120.886 141.368 118.186 142.068 116.037 141.018C114.337 140.468 113.087 138.319 113.637 136.619C114.687 132.62 119.236 128.87 123.736 130.22C123.736 130.22 121.136 129.37 120.886 127.82C120.586 125.221 122.236 124.521 123.686 123.621C124.935 123.371 127.085 122.721 127.985 124.171C128.435 125.171 127.435 125.271 127.435 125.271C126.535 124.171 125.385 124.621 124.685 124.921C123.286 125.521 122.736 126.82 123.686 127.47C124.385 127.92 125.835 127.92 125.835 127.92C134.334 124.821 124.985 116.722 117.936 124.971C116.787 126.42 116.787 128.57 116.887 130.17C108.888 132.62 104.239 139.469 109.188 143.418C113.237 146.018 119.236 145.218 123.336 143.418C126.085 141.968 129.085 139.369 129.335 136.069L129.285 136.019C129.285 134.419 128.435 133.319 127.735 132.72L127.535 132.47C130.585 133.069 133.484 130.62 132.334 128.57Z" fill="#D27B40"/>
<path fill-rule="evenodd" clip-rule="evenodd" d="M75.0929 157.316C75.2928 158.066 75.5928 158.866 76.0427 159.665H48.1469C52.3463 155.266 56.4457 150.717 60.4951 146.068C56.0957 141.068 53.6461 135.519 53.6461 129.62C53.6461 115.072 68.6438 102.324 90.9405 95.4751L88.5908 86.1765C71.0935 88.1762 54.6459 92.5756 39.8982 100.774C29.8997 106.923 21.401 116.622 21.5009 128.72C20.801 140.868 28.5999 150.967 38.7483 157.316C73.6931 176.413 118.786 176.963 160.78 173.463L159.23 165.715C149.882 167.914 139.533 169.114 128.635 169.114C107.638 169.164 88.7408 164.615 75.0929 157.316Z" fill="#D27B40"/>
</svg>
